<svg viewBox="0 0 14.0029 14" xmlns="http://www.w3.org/2000/svg" xmlns:xlink="http://www.w3.org/1999/xlink" width="14.002930" height="14.000000" fill="none" customFrame="#000000">
	<path id="Вектор 134" d="M9.625 0C9.27227 0 8.95234 0.213281 8.81563 0.541406C8.67891 0.869531 8.75547 1.24414 9.0043 1.4957L10.1363 2.625L5.50703 7.25703C5.16523 7.59883 5.16523 8.15391 5.50703 8.4957C5.84883 8.8375 6.40391 8.8375 6.7457 8.4957L11.375 3.86367L12.507 4.9957C12.7586 5.24727 13.1332 5.32109 13.4613 5.18438C13.7895 5.04766 14.0027 4.73047 14.0027 4.375L14.0027 0.875C14.0027 0.391016 13.6117 0 13.1277 0L9.625 0ZM2.1875 0.875C0.978906 0.875 0 1.85391 0 3.0625L0 11.8125C0 13.0211 0.978906 14 2.1875 14L10.9375 14C12.1461 14 13.125 13.0211 13.125 11.8125L13.125 8.75C13.125 8.26602 12.734 7.875 12.25 7.875C11.766 7.875 11.375 8.26602 11.375 8.75L11.375 11.8125C11.375 12.0531 11.1781 12.25 10.9375 12.25L2.1875 12.25C1.94687 12.25 1.75 12.0531 1.75 11.8125L1.75 3.0625C1.75 2.82187 1.94687 2.625 2.1875 2.625L5.25 2.625C5.73398 2.625 6.125 2.23398 6.125 1.75C6.125 1.26602 5.73398 0.875 5.25 0.875L2.1875 0.875Z" fill="rgb(0,0,0)" fill-rule="nonzero" />
</svg>
