<svg viewBox="0 0 14.6094 14.6094" xmlns="http://www.w3.org/2000/svg" xmlns:xlink="http://www.w3.org/1999/xlink" width="14.609375" height="14.609375" fill="none" customFrame="#000000">
	<path id="arrow__right--white" d="M1.78203 0C1.25747 0 0.832219 0.425247 0.832219 0.949815C0.832219 1.47438 1.25747 1.89963 1.78203 1.89963L7.0915 1.89963L0.669665 8.32102C0.299823 8.69084 0.299813 9.29045 0.669643 9.66028C1.03945 10.0301 1.63903 10.0301 2.00886 9.66031L8.43073 3.23887L8.43073 8.54833C8.43073 9.0729 8.85598 9.49815 9.38055 9.49815C9.90512 9.49815 10.3304 9.0729 10.3304 8.54833L10.3304 1.22557C10.3304 0.548705 9.78166 0 9.1048 0L1.78203 0Z" fill="rgb(255,255,255)" fill-rule="evenodd" transform="matrix(0.707107,0.707107,-0.707107,0.707107,7.30469,0)" />
</svg>
