<svg viewBox="0 0 20 20" xmlns="http://www.w3.org/2000/svg" xmlns:xlink="http://www.w3.org/1999/xlink" width="20.000000" height="20.000000" fill="none" customFrame="#000000">
	<path id="vk" d="M18.6 1.4C17.1864 0 14.9264 0 10.4 0L9.6 0C5.08 0 2.82 0 1.4 1.4C0 2.81357 0 5.07357 0 9.6L0 10.4C0 14.92 0 17.18 1.4 18.6C2.81357 20 5.07357 20 9.6 20L10.4 20C14.92 20 17.18 20 18.6 18.6C20 17.1864 20 14.9264 20 10.4L20 9.6C20 5.08 20 2.82 18.6 1.4L18.6 1.4ZM14.3536 14.4064C13.8471 12.8264 12.58 11.6 10.9071 11.4329L10.9071 14.4064L10.6407 14.4064C6.08071 14.4064 3.48071 11.2864 3.37429 6.08643L5.66786 6.08643C5.74143 9.9 7.42143 11.5129 8.75429 11.8464L8.75429 6.08643L10.9079 6.08643L10.9079 9.37286C12.2214 9.23286 13.6079 7.73286 14.0743 6.07929L16.2207 6.07929C15.8671 7.80929 14.8093 9.31429 13.3007 10.2329C14.985 11.0714 16.23 12.59 16.7207 14.4064L14.3543 14.4064L14.3536 14.4064Z" fill="rgb(46,125,50)" fill-rule="nonzero" />
</svg>
