<svg viewBox="0 0 440.602 67.2432" xmlns="http://www.w3.org/2000/svg" xmlns:xlink="http://www.w3.org/1999/xlink" width="440.601562" height="67.243164" fill="none">
	<rect id="association-2" width="440.601990" height="67.242996" x="0.000000" y="0.000000" />
	<g id="Group_1">
		<path id="Path_75" d="M117.565 33.4351L132.004 33.4351" stroke="rgb(229,0,25)" stroke-width="1.000000" />
		<path id="Path_76" d="M0 33.9351L51 33.9351" stroke="rgb(229,0,25)" stroke-width="1.000000" />
		<path id="Path_78" d="M84.4784 61.1781C89.3269 61.1781 94.09 59.9018 98.2889 57.4775C102.488 55.0533 105.975 51.5665 108.399 47.3676C110.823 43.1686 112.099 38.4056 112.099 33.5571C112.1 28.7085 110.823 23.9452 108.399 19.7461C105.975 15.5471 102.488 12.0601 98.2892 9.63574C94.0902 7.21138 89.327 5.93506 84.4784 5.93506C79.6298 5.93506 74.8666 7.21138 70.6676 9.63574C66.4686 12.0601 62.9818 15.5471 60.5576 19.7461C58.1334 23.9452 56.8572 28.7084 56.8574 33.5571C56.8574 38.4056 58.1337 43.1686 60.5579 47.3676C62.9822 51.5665 66.469 55.0533 70.6679 57.4775C74.8668 59.9018 79.6299 61.1781 84.4784 61.1781Z" fill="rgb(229,0,25)" fill-rule="nonzero" />
		<path id="Path_79" d="M100.972 62.361C106.017 59.4483 110.207 55.259 113.119 50.2141C116.032 45.1692 117.565 39.4464 117.565 33.6211C117.565 27.7957 116.032 22.073 113.119 17.0281C110.207 11.9832 106.017 7.79382 100.972 4.88114C95.9274 1.96846 90.2047 0.435066 84.3794 0.435059C78.554 0.435066 72.8313 1.96846 67.7864 4.88114C62.7414 7.79382 58.5521 11.9832 55.6394 17.0281C52.7268 22.073 51.1934 27.7957 51.1934 33.6211C51.1934 39.4464 52.7268 45.1692 55.6394 50.2141C58.5521 55.259 62.7414 59.4483 67.7864 62.361C72.8313 65.2737 78.554 66.8071 84.3794 66.8071C90.2047 66.8071 95.9274 65.2737 100.972 62.361Z" fill-rule="nonzero" stroke="rgb(229,0,25)" stroke-width="0.871000" />
		<path id="Path_80" d="M84.478 53.2441C87.9338 53.2441 91.3287 52.3345 94.3215 50.6066C97.3143 48.8787 99.7996 46.3934 101.527 43.4006C103.255 40.4078 104.165 37.0129 104.165 33.5571C104.165 30.1013 103.255 26.7064 101.527 23.7136C99.7996 20.7208 97.3143 18.2356 94.3215 16.5077C91.3287 14.7798 87.9338 13.8701 84.478 13.8701C81.0222 13.8701 77.6273 14.7798 74.6345 16.5077C71.6417 18.2356 69.1565 20.7208 67.4286 23.7136C65.7007 26.7064 64.791 30.1013 64.791 33.5571C64.791 37.0129 65.7007 40.4078 67.4286 43.4006C69.1565 46.3934 71.6417 48.8787 74.6345 50.6066C77.6273 52.3345 81.0222 53.2441 84.478 53.2441Z" fill="rgb(255,255,255)" fill-rule="nonzero" />
		<path id="Path_81" d="M84.4781 55.0792C88.256 55.0792 91.9673 54.0847 95.2391 52.1958C98.5108 50.3068 101.228 47.5899 103.117 44.3182C105.006 41.0464 106 37.3351 106 33.5572C106 29.7793 105.006 26.0679 103.117 22.7962C101.228 19.5244 98.5108 16.8075 95.2391 14.9186C91.9673 13.0296 88.256 12.0352 84.4781 12.0352C80.7001 12.0352 76.9888 13.0296 73.7171 14.9186C70.4453 16.8075 67.7284 19.5244 65.8395 22.7962C63.9505 26.0679 62.9561 29.7793 62.9561 33.5572C62.9561 37.3351 63.9505 41.0464 65.8395 44.3182C67.7284 47.5899 70.4453 50.3068 73.7171 52.1958C76.9888 54.0847 80.7001 55.0792 84.4781 55.0792Z" fill="rgb(255,255,255)" fill-rule="nonzero" />
		<path id="Path_82" d="M90.0175 31.37L92.2695 38.257L86.3695 34L80.4785 38.257L82.7305 31.37L71.0835 39.748C71.0675 39.783 69.7305 43.9 69.6465 44.156L72.7995 41.878L71.9925 44.357L78.3735 39.757L77.5575 42.257L86.3385 35.915L88.6095 37.556C90.3217 38.8173 92.2117 39.8175 94.2175 40.524C94.3175 40.553 94.5855 40.632 94.6865 40.659L91.8335 31.948L94.1605 30.27L91.5425 30.27L90.0175 31.37Z" fill="rgb(229,0,25)" fill-rule="nonzero" />
		<path id="Path_83" d="M95.8578 25.5562L90.7578 25.5682C90.7578 25.5682 93.8118 23.3482 94.4298 22.9242L94.4978 22.8772L94.3438 22.3632C93.5288 19.5632 90.6298 19.1762 87.6718 19.0422C86.4895 19.0006 85.3057 19.03 84.1268 19.1302C82.6956 19.1599 81.2905 19.5193 80.0208 20.1804C78.751 20.8416 77.6509 21.7867 76.8058 22.9422C75.4948 24.5362 74.5798 27.5422 73.5848 29.4832L74.6928 28.6832L72.9928 33.8832C72.3578 35.8402 69.9648 40.5562 69.9648 40.5562C69.9648 40.5562 70.4448 40.2052 70.7948 39.9562L71.3398 39.5632L82.7298 31.3712L81.2058 30.2712L84.7368 30.2712L83.4578 34.1862L86.3768 32.0782L89.2918 34.1862L88.0098 30.2702L94.1578 30.2702L96.3848 28.6612L87.4848 28.6722L86.3738 25.2562L85.2578 28.6722L78.9948 28.6722L76.8338 27.1142L84.1208 27.1142L86.3698 20.2482L88.6238 27.1142L96.6008 27.1142C96.7941 27.1061 96.9857 27.1529 97.1535 27.249C97.3214 27.3451 97.4586 27.4868 97.5494 27.6575C97.6403 27.8283 97.681 28.0213 97.6668 28.2142C98.5788 26.7142 97.6308 25.5282 95.8578 25.5562ZM88.5988 22.0562C89.9016 21.9627 91.211 22.0594 92.4858 22.3432C92.6858 22.3922 92.6988 22.5432 92.4998 22.5982C91.8933 22.827 91.336 23.1694 90.8578 23.6072C90.2199 22.9399 89.4508 22.4118 88.5988 22.0562Z" fill="rgb(175,2,7)" fill-rule="nonzero" />
		<path id="Path_85" d="M77.7736 42.101L77.5556 42.258L78.3736 39.755L76.2316 41.296L74.0156 48.091L88.6076 37.557L86.3366 35.916L77.7736 42.101Z" fill="rgb(175,2,7)" fill-rule="nonzero" />
		<path id="Path_86" d="M98.2281 23.874C97.5746 23.4649 96.8461 23.1902 96.0851 23.066C95.5551 22.974 94.4941 22.874 94.4941 22.874C94.4941 22.874 94.3281 22.989 94.2111 23.074L93.3221 23.706C92.2791 24.448 90.7381 25.538 90.7451 25.574L95.8451 25.562C97.6201 25.531 98.5781 26.714 97.6671 28.21C100.157 26.236 99.3711 24.653 98.2281 23.874Z" fill="rgb(229,0,25)" fill-rule="nonzero" />
		<path id="Path_87" d="M61.6048 9.33496C57.2761 13.5052 54.1439 18.7592 52.5342 24.5503C50.9245 30.3415 50.8961 36.4581 52.452 42.264C54.0078 48.0698 57.091 53.3527 61.3808 57.563" fill-rule="nonzero" stroke="rgb(229,0,25)" stroke-width="2.613000" />
		<path id="Path_92" d="M313 44.9053L317 44.9053L317 22.9053L313 22.9053L313 44.9053Z" fill="rgb(229,0,25)" fill-rule="nonzero" />
		<path id="Path_93" d="M162.4 22.4331C157.3 22.4331 154.534 25.4181 154.161 31.3081L152.2 31.3081L152.2 22.7151L147 22.7151L147 45.1521L152.2 45.1521L152.2 35.8031L154.145 35.8031C154.313 42.1951 157.088 45.4331 162.4 45.4331C167.883 45.4331 170.66 41.9751 170.66 35.1551L170.66 32.7111C170.66 25.8891 167.883 22.4331 162.4 22.4331ZM159.34 32.8991C159.34 27.9431 160.564 26.9331 162.4 26.9331C164.236 26.9331 165.461 27.9471 165.461 32.9031L165.461 34.9331C165.461 39.3071 164.632 40.9331 162.4 40.9331C160.564 40.9331 159.34 39.9131 159.34 34.9331L159.34 32.8991Z" fill="rgb(175,2,7)" fill-rule="nonzero" />
		<path id="Path_95" d="M185.929 31.3078L179.21 31.3078L179.21 22.7148L174.01 22.7148L174.01 45.1518L179.21 45.1518L179.21 35.8078L185.929 35.8078L185.929 45.1558L191.129 45.1558L191.129 22.7148L185.929 22.7148L185.929 31.3078Z" fill="rgb(175,2,7)" fill-rule="nonzero" />
		<path id="Path_96" d="M201.226 22.7148L193.401 45.1508L198.971 45.1508L200.292 41.0418L206.974 41.0418L208.295 45.1508L213.832 45.1508L206.007 22.7148L201.226 22.7148ZM205.526 36.5438L201.711 36.5438L203.611 30.6228L205.526 36.5438Z" fill="rgb(175,2,7)" fill-rule="nonzero" />
		<path id="Path_97" d="M224.251 22.7148L216.086 22.7148L216.086 45.1508L221.286 45.1508L221.286 37.5278L224.251 37.5278C229.583 37.5278 232.764 34.7278 232.764 30.0428C232.764 25.3868 229.662 22.7148 224.251 22.7148ZM227.564 30.0428C227.564 32.1668 226.422 33.0318 223.624 33.0318L221.285 33.0318L221.285 27.2418L223.624 27.2418C225.458 27.2418 227.564 27.5608 227.564 30.0418" fill="rgb(175,2,7)" fill-rule="nonzero" />
		<path id="Path_99" d="M246.079 34.0338L240.224 22.7158L235.464 22.7158L235.464 45.1518L240.443 45.1518L240.443 33.1338L244.45 41.2598L247.619 41.2598L251.69 33.0338L251.69 45.1518L256.701 45.1518L256.701 22.7158L251.879 22.7158L246.079 34.0338Z" fill="rgb(175,2,7)" fill-rule="nonzero" />
		<path id="Path_100" d="M265.841 35.3758L265.841 22.7158L260.641 22.7158L260.641 45.1518L264.869 45.1518L273.219 32.6448L273.219 45.1518L278.419 45.1518L278.419 22.7158L274.285 22.7158L265.841 35.3758Z" fill="rgb(175,2,7)" fill-rule="nonzero" />
		<path id="Path_101" d="M290.547 22.7148C285.078 22.7148 281.941 25.2488 281.941 29.6678C281.941 32.7348 283.277 34.8318 285.917 35.8998L280.782 45.1518L286.541 45.1518L291.041 36.6518L293.419 36.6518L293.419 45.1518L298.619 45.1518L298.619 22.7148L290.547 22.7148ZM293.419 27.2418L293.419 32.1568L290.861 32.1568C287.732 32.1568 287.139 31.2818 287.139 29.6678C287.139 28.2108 287.773 27.2418 290.861 27.2418L293.419 27.2418Z" fill="rgb(175,2,7)" fill-rule="nonzero" />
		<g id="Всероссийское_">
			<path id="" />
		</g>
		<g id="_" />
		<g id="детско-юношеское_">
			<path id="" />
		</g>
		<g id="_2" />
		<g id="движение">
			<path id="" />
		</g>
		<path id="Path_103" d="M427.344 24.3481L437.667 33.9381L427.344 43.5281M411 33.9381L436.807 33.9381" fill-rule="nonzero" stroke="rgb(229,0,25)" stroke-width="3.996000" />
		<rect id="Rectangle_279" width="5.000000" height="5.000000" x="129.000000" y="30.935059" fill="rgb(229,0,25)" />
	</g>
	<path id="" d="M326.705 27L326.705 21.1816L328.738 21.1816C329.143 21.1816 329.477 21.2513 329.74 21.3906C330.005 21.5299 330.201 21.7168 330.33 21.9512C330.459 22.1842 330.523 22.4427 330.523 22.7266C330.523 22.9766 330.479 23.1836 330.391 23.3477C330.302 23.5104 330.186 23.6393 330.043 23.7344C329.901 23.8281 329.747 23.8978 329.58 23.9434L329.58 24C329.757 24.0117 329.936 24.0742 330.115 24.1875C330.296 24.3008 330.447 24.4635 330.568 24.6758C330.689 24.888 330.75 25.1478 330.75 25.4551C330.75 25.7467 330.684 26.0091 330.551 26.2422C330.418 26.4753 330.208 26.6602 329.922 26.7969C329.637 26.9323 329.265 27 328.807 27L326.705 27ZM327.408 26.375L328.807 26.375C329.268 26.375 329.595 26.2858 329.789 26.1074C329.983 25.9277 330.08 25.7103 330.08 25.4551C330.08 25.2572 330.03 25.0749 329.93 24.9082C329.829 24.7402 329.686 24.6055 329.5 24.5039C329.314 24.4023 329.094 24.3516 328.842 24.3516L327.408 24.3516L327.408 26.375ZM327.408 23.7383L328.717 23.7383C328.928 23.7383 329.119 23.6966 329.291 23.6133C329.463 23.5299 329.599 23.4128 329.699 23.2617C329.801 23.1094 329.852 22.931 329.852 22.7266C329.852 22.4714 329.762 22.2546 329.584 22.0762C329.407 21.8965 329.125 21.8066 328.738 21.8066L327.408 21.8066L327.408 23.7383ZM333.591 27.0918C333.182 27.0918 332.83 26.9954 332.535 26.8027C332.239 26.6087 332.011 26.3424 331.851 26.0039C331.692 25.6641 331.613 25.2767 331.613 24.8418C331.613 24.3978 331.695 24.0059 331.859 23.666C332.023 23.3262 332.252 23.0605 332.546 22.8691C332.841 22.6764 333.185 22.5801 333.58 22.5801C333.887 22.5801 334.164 22.6367 334.41 22.75C334.656 22.8633 334.857 23.0221 335.013 23.2266C335.171 23.431 335.268 23.6699 335.306 23.9434L334.636 23.9434C334.585 23.7441 334.472 23.5677 334.296 23.4141C334.122 23.2591 333.887 23.1816 333.591 23.1816C333.33 23.1816 333.1 23.2493 332.904 23.3848C332.708 23.5202 332.556 23.7109 332.447 23.957C332.339 24.2018 332.285 24.4889 332.285 24.8184C332.285 25.1556 332.338 25.4492 332.445 25.6992C332.552 25.9492 332.703 26.1432 332.898 26.2812C333.095 26.4193 333.326 26.4883 333.591 26.4883C333.766 26.4883 333.924 26.4583 334.066 26.3984C334.208 26.3372 334.328 26.25 334.425 26.1367C334.524 26.0234 334.595 25.8867 334.636 25.7266L335.306 25.7266C335.268 25.9844 335.175 26.2161 335.027 26.4219C334.878 26.6276 334.682 26.791 334.439 26.9121C334.195 27.0319 333.913 27.0918 333.591 27.0918ZM338.114 27.0918C337.693 27.0918 337.331 26.9987 337.026 26.8125C336.723 26.625 336.489 26.3633 336.325 26.0273C336.161 25.6914 336.079 25.2995 336.079 24.8516C336.079 24.4049 336.161 24.0111 336.325 23.6699C336.489 23.3275 336.718 23.0605 337.012 22.8691C337.307 22.6764 337.651 22.5801 338.045 22.5801C338.273 22.5801 338.498 22.6178 338.719 22.6934C338.941 22.7689 339.142 22.8913 339.323 23.0605C339.505 23.2298 339.65 23.4538 339.758 23.7324C339.866 24.0111 339.92 24.3542 339.92 24.7617L339.92 25.0449L336.557 25.0449L336.557 24.4668L339.239 24.4668C339.239 24.2194 339.19 23.9993 339.092 23.8066C338.995 23.6139 338.856 23.4616 338.676 23.3496C338.498 23.2376 338.288 23.1816 338.045 23.1816C337.779 23.1816 337.548 23.2474 337.354 23.3789C337.16 23.5104 337.011 23.6816 336.907 23.8926C336.803 24.1022 336.751 24.3275 336.751 24.5684L336.751 24.9551C336.751 25.2845 336.808 25.5632 336.922 25.791C337.037 26.0189 337.197 26.1921 337.401 26.3105C337.605 26.429 337.843 26.4883 338.114 26.4883C338.29 26.4883 338.449 26.4635 338.592 26.4141C338.736 26.3633 338.859 26.2871 338.963 26.1855C339.068 26.084 339.148 25.9577 339.204 25.8066L339.852 25.9883C339.784 26.2083 339.67 26.401 339.508 26.5664C339.347 26.7318 339.148 26.8607 338.911 26.9531C338.675 27.0456 338.409 27.0918 338.114 27.0918ZM340.943 28.6367L340.943 22.6367L341.591 22.6367L341.591 23.3301L341.671 23.3301C341.72 23.2546 341.788 23.1576 341.876 23.0391C341.965 22.9206 342.092 22.8145 342.257 22.7207C342.423 22.627 342.647 22.5801 342.931 22.5801C343.3 22.5801 343.624 22.6719 343.904 22.8555C344.184 23.0391 344.402 23.2995 344.56 23.6367C344.718 23.974 344.796 24.3717 344.796 24.8301C344.796 25.2923 344.718 25.6927 344.56 26.0312C344.402 26.3685 344.184 26.6296 343.906 26.8145C343.627 26.9993 343.306 27.0918 342.943 27.0918C342.663 27.0918 342.438 27.0449 342.269 26.9512C342.101 26.8574 341.971 26.7507 341.88 26.6309C341.789 26.5098 341.72 26.4095 341.671 26.3301L341.613 26.3301L341.613 28.6367L340.943 28.6367ZM341.603 24.8184C341.603 25.1478 341.651 25.4382 341.748 25.6895C341.844 25.9395 341.984 26.1354 342.169 26.2773C342.356 26.418 342.583 26.4883 342.853 26.4883C343.133 26.4883 343.367 26.4141 343.554 26.2656C343.743 26.1172 343.885 25.9167 343.98 25.6641C344.076 25.4102 344.124 25.1283 344.124 24.8184C344.124 24.5111 344.078 24.2344 343.984 23.9883C343.89 23.7409 343.749 23.5449 343.56 23.4004C343.372 23.2546 343.137 23.1816 342.853 23.1816C342.58 23.1816 342.35 23.2507 342.164 23.3887C341.979 23.5254 341.839 23.7168 341.744 23.9629C341.65 24.2077 341.603 24.4928 341.603 24.8184ZM347.591 27.0918C347.197 27.0918 346.851 26.998 346.554 26.8105C346.259 26.623 346.027 26.3607 345.861 26.0234C345.695 25.6862 345.613 25.2923 345.613 24.8418C345.613 24.3861 345.695 23.9889 345.861 23.6504C346.027 23.3118 346.259 23.0488 346.554 22.8613C346.851 22.6738 347.197 22.5801 347.591 22.5801C347.984 22.5801 348.33 22.6738 348.626 22.8613C348.923 23.0488 349.154 23.3118 349.32 23.6504C349.485 23.9889 349.568 24.3861 349.568 24.8418C349.568 25.2923 349.485 25.6862 349.32 26.0234C349.154 26.3607 348.923 26.623 348.626 26.8105C348.33 26.998 347.984 27.0918 347.591 27.0918ZM347.591 26.4883C347.891 26.4883 348.137 26.4121 348.33 26.2598C348.522 26.1061 348.665 25.9043 348.757 25.6543C348.851 25.4043 348.898 25.1335 348.898 24.8418C348.898 24.5501 348.851 24.2786 348.757 24.0273C348.665 23.7747 348.522 23.571 348.33 23.416C348.137 23.2598 347.891 23.1816 347.591 23.1816C347.292 23.1816 347.045 23.2598 346.851 23.416C346.658 23.571 346.516 23.7747 346.423 24.0273C346.331 24.2786 346.285 24.5501 346.285 24.8418C346.285 25.1335 346.331 25.4043 346.423 25.6543C346.516 25.9043 346.658 26.1061 346.851 26.2598C347.045 26.4121 347.292 26.4883 347.591 26.4883ZM352.364 27.0918C351.955 27.0918 351.603 26.9954 351.307 26.8027C351.012 26.6087 350.784 26.3424 350.624 26.0039C350.465 25.6641 350.385 25.2767 350.385 24.8418C350.385 24.3978 350.467 24.0059 350.632 23.666C350.796 23.3262 351.025 23.0605 351.319 22.8691C351.613 22.6764 351.958 22.5801 352.352 22.5801C352.66 22.5801 352.936 22.6367 353.182 22.75C353.428 22.8633 353.63 23.0221 353.786 23.2266C353.943 23.431 354.041 23.6699 354.079 23.9434L353.409 23.9434C353.358 23.7441 353.245 23.5677 353.069 23.4141C352.895 23.2591 352.66 23.1816 352.364 23.1816C352.102 23.1816 351.873 23.2493 351.676 23.3848C351.481 23.5202 351.329 23.7109 351.219 23.957C351.111 24.2018 351.057 24.4889 351.057 24.8184C351.057 25.1556 351.111 25.4492 351.217 25.6992C351.324 25.9492 351.475 26.1432 351.671 26.2812C351.867 26.4193 352.098 26.4883 352.364 26.4883C352.538 26.4883 352.697 26.4583 352.839 26.3984C352.981 26.3372 353.1 26.25 353.198 26.1367C353.297 26.0234 353.367 25.8867 353.409 25.7266L354.079 25.7266C354.041 25.9844 353.948 26.2161 353.8 26.4219C353.651 26.6276 353.455 26.791 353.212 26.9121C352.968 27.0319 352.686 27.0918 352.364 27.0918ZM356.83 27.0918C356.421 27.0918 356.069 26.9954 355.773 26.8027C355.478 26.6087 355.25 26.3424 355.09 26.0039C354.931 25.6641 354.851 25.2767 354.851 24.8418C354.851 24.3978 354.933 24.0059 355.097 23.666C355.262 23.3262 355.491 23.0605 355.785 22.8691C356.079 22.6764 356.424 22.5801 356.818 22.5801C357.125 22.5801 357.402 22.6367 357.648 22.75C357.894 22.8633 358.096 23.0221 358.252 23.2266C358.409 23.431 358.507 23.6699 358.545 23.9434L357.875 23.9434C357.824 23.7441 357.711 23.5677 357.535 23.4141C357.361 23.2591 357.125 23.1816 356.83 23.1816C356.568 23.1816 356.339 23.2493 356.142 23.3848C355.947 23.5202 355.795 23.7109 355.685 23.957C355.577 24.2018 355.523 24.4889 355.523 24.8184C355.523 25.1556 355.577 25.4492 355.683 25.6992C355.79 25.9492 355.941 26.1432 356.137 26.2812C356.333 26.4193 356.564 26.4883 356.83 26.4883C357.004 26.4883 357.163 26.4583 357.305 26.3984C357.446 26.3372 357.566 26.25 357.664 26.1367C357.763 26.0234 357.833 25.8867 357.875 25.7266L358.545 25.7266C358.507 25.9844 358.414 26.2161 358.265 26.4219C358.117 26.6276 357.921 26.791 357.678 26.9121C357.434 27.0319 357.152 27.0918 356.83 27.0918ZM360.192 26.0117L362.296 22.6367L363.067 22.6367L363.067 27L362.397 27L362.397 23.625L360.308 27L359.522 27L359.522 22.6367L360.192 22.6367L360.192 26.0117ZM364.965 26.0117L367.069 22.6367L367.84 22.6367L367.84 27L367.17 27L367.17 23.625L365.08 27L364.295 27L364.295 22.6367L364.965 22.6367L364.965 26.0117ZM366.625 21.1816L367.25 21.1816C367.25 21.4889 367.144 21.7402 366.932 21.9355C366.721 22.1296 366.433 22.2266 366.069 22.2266C365.71 22.2266 365.426 22.1296 365.215 21.9355C365.004 21.7402 364.899 21.4889 364.899 21.1816L365.524 21.1816C365.524 21.3301 365.565 21.4603 365.647 21.5723C365.73 21.6829 365.871 21.7383 366.069 21.7383C366.268 21.7383 366.41 21.6829 366.496 21.5723C366.582 21.4603 366.625 21.3301 366.625 21.1816ZM370.841 27.0918C370.432 27.0918 370.08 26.9954 369.785 26.8027C369.489 26.6087 369.261 26.3424 369.101 26.0039C368.942 25.6641 368.863 25.2767 368.863 24.8418C368.863 24.3978 368.945 24.0059 369.109 23.666C369.273 23.3262 369.502 23.0605 369.796 22.8691C370.091 22.6764 370.435 22.5801 370.83 22.5801C371.137 22.5801 371.414 22.6367 371.66 22.75C371.906 22.8633 372.107 23.0221 372.263 23.2266C372.421 23.431 372.518 23.6699 372.556 23.9434L371.886 23.9434C371.835 23.7441 371.722 23.5677 371.546 23.4141C371.372 23.2591 371.137 23.1816 370.841 23.1816C370.58 23.1816 370.35 23.2493 370.154 23.3848C369.958 23.5202 369.806 23.7109 369.697 23.957C369.589 24.2018 369.535 24.4889 369.535 24.8184C369.535 25.1556 369.588 25.4492 369.695 25.6992C369.802 25.9492 369.953 26.1432 370.148 26.2812C370.345 26.4193 370.576 26.4883 370.841 26.4883C371.016 26.4883 371.174 26.4583 371.316 26.3984C371.458 26.3372 371.578 26.25 371.675 26.1367C371.774 26.0234 371.845 25.8867 371.886 25.7266L372.556 25.7266C372.518 25.9844 372.425 26.2161 372.277 26.4219C372.128 26.6276 371.932 26.791 371.689 26.9121C371.445 27.0319 371.163 27.0918 370.841 27.0918ZM373.534 27L373.534 22.6367L374.204 22.6367L374.204 24.5332L374.647 24.5332L376.215 22.6367L377.079 22.6367L375.319 24.7383L377.102 27L376.239 27L374.807 25.1582L374.204 25.1582L374.204 27L373.534 27ZM379.421 27.0918C379.026 27.0918 378.681 26.998 378.384 26.8105C378.088 26.623 377.857 26.3607 377.69 26.0234C377.525 25.6862 377.442 25.2923 377.442 24.8418C377.442 24.3861 377.525 23.9889 377.69 23.6504C377.857 23.3118 378.088 23.0488 378.384 22.8613C378.681 22.6738 379.026 22.5801 379.421 22.5801C379.814 22.5801 380.159 22.6738 380.456 22.8613C380.753 23.0488 380.984 23.3118 381.149 23.6504C381.315 23.9889 381.397 24.3861 381.397 24.8418C381.397 25.2923 381.315 25.6862 381.149 26.0234C380.984 26.3607 380.753 26.623 380.456 26.8105C380.159 26.998 379.814 27.0918 379.421 27.0918ZM379.421 26.4883C379.72 26.4883 379.966 26.4121 380.159 26.2598C380.352 26.1061 380.494 25.9043 380.587 25.6543C380.681 25.4043 380.727 25.1335 380.727 24.8418C380.727 24.5501 380.681 24.2786 380.587 24.0273C380.494 23.7747 380.352 23.571 380.159 23.416C379.966 23.2598 379.72 23.1816 379.421 23.1816C379.121 23.1816 378.875 23.2598 378.681 23.416C378.488 23.571 378.345 23.7747 378.253 24.0273C378.16 24.2786 378.114 24.5501 378.114 24.8418C378.114 25.1335 378.16 25.4043 378.253 25.6543C378.345 25.9043 378.488 26.1061 378.681 26.2598C378.875 26.4121 379.121 26.4883 379.421 26.4883ZM384.25 27.0918C383.83 27.0918 383.467 26.9987 383.162 26.8125C382.859 26.625 382.625 26.3633 382.461 26.0273C382.297 25.6914 382.215 25.2995 382.215 24.8516C382.215 24.4049 382.297 24.0111 382.461 23.6699C382.625 23.3275 382.854 23.0605 383.149 22.8691C383.443 22.6764 383.787 22.5801 384.182 22.5801C384.41 22.5801 384.634 22.6178 384.856 22.6934C385.077 22.7689 385.278 22.8913 385.459 23.0605C385.641 23.2298 385.787 23.4538 385.895 23.7324C386.003 24.0111 386.057 24.3542 386.057 24.7617L386.057 25.0449L382.694 25.0449L382.694 24.4668L385.375 24.4668C385.375 24.2194 385.326 23.9993 385.229 23.8066C385.131 23.6139 384.992 23.4616 384.813 23.3496C384.634 23.2376 384.424 23.1816 384.182 23.1816C383.915 23.1816 383.684 23.2474 383.49 23.3789C383.296 23.5104 383.147 23.6816 383.043 23.8926C382.939 24.1022 382.887 24.3275 382.887 24.5684L382.887 24.9551C382.887 25.2845 382.944 25.5632 383.059 25.791C383.173 26.0189 383.333 26.1921 383.537 26.3105C383.742 26.429 383.979 26.4883 384.25 26.4883C384.426 26.4883 384.585 26.4635 384.729 26.4141C384.872 26.3633 384.996 26.2871 385.1 26.1855C385.204 26.084 385.284 25.9577 385.34 25.8066L385.988 25.9883C385.921 26.2083 385.806 26.401 385.645 26.5664C385.483 26.7318 385.284 26.8607 385.047 26.9531C384.811 27.0456 384.546 27.0918 384.25 27.0918ZM326.148 38.25L326.148 36.375L326.512 36.375C326.6 36.2826 326.676 36.1823 326.74 36.0742C326.805 35.9661 326.862 35.8379 326.91 35.6895C326.958 35.541 326.999 35.3594 327.033 35.1445C327.068 34.9284 327.099 34.668 327.125 34.3633L327.273 32.6367L330.045 32.6367L330.045 36.375L330.717 36.375L330.717 38.25L330.045 38.25L330.045 37L326.818 37L326.818 38.25L326.148 38.25ZM327.273 36.375L329.375 36.375L329.375 33.2617L327.898 33.2617L327.783 34.3633C327.736 34.8203 327.678 35.2194 327.607 35.5605C327.537 35.9004 327.426 36.1719 327.273 36.375ZM333.432 37.0918C333.011 37.0918 332.649 36.9987 332.344 36.8125C332.041 36.625 331.807 36.3633 331.643 36.0273C331.479 35.6914 331.397 35.2995 331.397 34.8516C331.397 34.4049 331.479 34.0111 331.643 33.6699C331.807 33.3275 332.036 33.0605 332.33 32.8691C332.625 32.6764 332.969 32.5801 333.364 32.5801C333.591 32.5801 333.816 32.6178 334.037 32.6934C334.259 32.7689 334.46 32.8913 334.641 33.0605C334.823 33.2298 334.968 33.4538 335.077 33.7324C335.185 34.0111 335.239 34.3542 335.239 34.7617L335.239 35.0449L331.875 35.0449L331.875 34.4668L334.557 34.4668C334.557 34.2194 334.508 33.9993 334.411 33.8066C334.313 33.6139 334.174 33.4616 333.995 33.3496C333.816 33.2376 333.606 33.1816 333.364 33.1816C333.097 33.1816 332.866 33.2474 332.672 33.3789C332.478 33.5104 332.329 33.6816 332.225 33.8926C332.121 34.1022 332.069 34.3275 332.069 34.5684L332.069 34.9551C332.069 35.2845 332.126 35.5631 332.241 35.791C332.355 36.0189 332.515 36.1921 332.719 36.3105C332.924 36.429 333.161 36.4883 333.432 36.4883C333.608 36.4883 333.767 36.4635 333.911 36.4141C334.054 36.3633 334.177 36.2871 334.282 36.1855C334.386 36.084 334.466 35.9577 334.522 35.8066L335.17 35.9883C335.103 36.2083 334.988 36.401 334.827 36.5664C334.665 36.7318 334.466 36.8607 334.229 36.9531C333.993 37.0456 333.728 37.0918 333.432 37.0918ZM335.852 33.2617L335.852 32.6367L339.397 32.6367L339.397 33.2617L337.965 33.2617L337.965 37L337.295 37L337.295 33.2617L335.852 33.2617ZM341.921 37.0918C341.512 37.0918 341.16 36.9954 340.864 36.8027C340.569 36.6087 340.341 36.3424 340.181 36.0039C340.022 35.6641 339.942 35.2767 339.942 34.8418C339.942 34.3978 340.024 34.0059 340.188 33.666C340.352 33.3262 340.582 33.0605 340.876 32.8691C341.17 32.6764 341.515 32.5801 341.909 32.5801C342.216 32.5801 342.493 32.6367 342.739 32.75C342.985 32.8633 343.186 33.0221 343.343 33.2266C343.5 33.431 343.598 33.6699 343.636 33.9434L342.966 33.9434C342.915 33.7441 342.802 33.5677 342.626 33.4141C342.451 33.2591 342.216 33.1816 341.921 33.1816C341.659 33.1816 341.43 33.2493 341.233 33.3848C341.038 33.5202 340.886 33.7109 340.776 33.957C340.668 34.2018 340.614 34.4889 340.614 34.8184C340.614 35.1556 340.668 35.4492 340.774 35.6992C340.881 35.9492 341.032 36.1432 341.227 36.2812C341.424 36.4193 341.655 36.4883 341.921 36.4883C342.095 36.4883 342.253 36.4583 342.395 36.3984C342.537 36.3372 342.657 36.25 342.755 36.1367C342.854 36.0234 342.924 35.8867 342.966 35.7266L343.636 35.7266C343.598 35.9844 343.505 36.2161 343.356 36.4219C343.208 36.6276 343.012 36.791 342.768 36.9121C342.525 37.0319 342.242 37.0918 341.921 37.0918ZM344.613 37L344.613 32.6367L345.283 32.6367L345.283 34.5332L345.727 34.5332L347.295 32.6367L348.158 32.6367L346.398 34.7383L348.182 37L347.318 37L345.887 35.1582L345.283 35.1582L345.283 37L344.613 37ZM350.5 37.0918C350.106 37.0918 349.76 36.998 349.463 36.8105C349.168 36.623 348.937 36.3607 348.77 36.0234C348.605 35.6862 348.522 35.2923 348.522 34.8418C348.522 34.3861 348.605 33.9889 348.77 33.6504C348.937 33.3118 349.168 33.0488 349.463 32.8613C349.76 32.6738 350.106 32.5801 350.5 32.5801C350.894 32.5801 351.239 32.6738 351.536 32.8613C351.832 33.0488 352.064 33.3118 352.229 33.6504C352.394 33.9889 352.477 34.3861 352.477 34.8418C352.477 35.2923 352.394 35.6862 352.229 36.0234C352.064 36.3607 351.832 36.623 351.536 36.8105C351.239 36.998 350.894 37.0918 350.5 37.0918ZM350.5 36.4883C350.8 36.4883 351.046 36.4121 351.239 36.2598C351.431 36.1061 351.574 35.9043 351.666 35.6543C351.76 35.4043 351.807 35.1335 351.807 34.8418C351.807 34.5501 351.76 34.2786 351.666 34.0273C351.574 33.7747 351.431 33.571 351.239 33.416C351.046 33.2598 350.8 33.1816 350.5 33.1816C350.201 33.1816 349.954 33.2598 349.76 33.416C349.567 33.571 349.425 33.7747 349.332 34.0273C349.24 34.2786 349.194 34.5501 349.194 34.8418C349.194 35.1335 349.24 35.4043 349.332 35.6543C349.425 35.9043 349.567 36.1061 349.76 36.2598C349.954 36.4121 350.201 36.4883 350.5 36.4883ZM356 34.1934L356 34.8184L353.455 34.8184L353.455 34.1934L356 34.1934ZM359.273 34.5449L359.273 35.1699L356.967 35.1699L356.967 34.5449L359.273 34.5449ZM357.535 32.6367L357.535 37L356.863 37L356.863 32.6367L357.535 32.6367ZM360.613 37.0918C360.22 37.0918 359.875 36.998 359.578 36.8105C359.281 36.623 359.05 36.3607 358.885 36.0234C358.719 35.6862 358.637 35.2923 358.637 34.8418C358.637 34.3861 358.719 33.9889 358.885 33.6504C359.05 33.3118 359.281 33.0488 359.578 32.8613C359.875 32.6738 360.22 32.5801 360.613 32.5801C361.008 32.5801 361.353 32.6738 361.648 32.8613C361.945 33.0488 362.176 33.3118 362.342 33.6504C362.508 33.9889 362.592 34.3861 362.592 34.8418C362.592 35.2923 362.508 35.6862 362.342 36.0234C362.176 36.3607 361.945 36.623 361.648 36.8105C361.353 36.998 361.008 37.0918 360.613 37.0918ZM360.613 36.4883C360.913 36.4883 361.159 36.4121 361.351 36.2598C361.545 36.1061 361.689 35.9043 361.781 35.6543C361.874 35.4043 361.92 35.1335 361.92 34.8418C361.92 34.5501 361.874 34.2786 361.781 34.0273C361.689 33.7747 361.545 33.571 361.351 33.416C361.159 33.2598 360.913 33.1816 360.613 33.1816C360.314 33.1816 360.068 33.2598 359.875 33.416C359.682 33.571 359.539 33.7747 359.445 34.0273C359.353 34.2786 359.306 34.5501 359.306 34.8418C359.306 35.1335 359.353 35.4043 359.445 35.6543C359.539 35.9043 359.682 36.1061 359.875 36.2598C360.068 36.4121 360.314 36.4883 360.613 36.4883ZM366.601 34.5117L366.601 35.1367L364.193 35.1367L364.193 34.5117L366.601 34.5117ZM364.351 32.6367L364.351 37L363.681 37L363.681 32.6367L364.351 32.6367ZM367.113 32.6367L367.113 37L366.443 37L366.443 32.6367L367.113 32.6367ZM370.114 37.0918C369.719 37.0918 369.374 36.998 369.077 36.8105C368.781 36.623 368.55 36.3607 368.384 36.0234C368.218 35.6862 368.135 35.2923 368.135 34.8418C368.135 34.3861 368.218 33.9889 368.384 33.6504C368.55 33.3118 368.781 33.0488 369.077 32.8613C369.374 32.6738 369.719 32.5801 370.114 32.5801C370.507 32.5801 370.852 32.6738 371.149 32.8613C371.446 33.0488 371.677 33.3118 371.842 33.6504C372.008 33.9889 372.091 34.3861 372.091 34.8418C372.091 35.2923 372.008 35.6862 371.842 36.0234C371.677 36.3607 371.446 36.623 371.149 36.8105C370.852 36.998 370.507 37.0918 370.114 37.0918ZM370.114 36.4883C370.413 36.4883 370.66 36.4121 370.852 36.2598C371.045 36.1061 371.188 35.9043 371.28 35.6543C371.374 35.4043 371.421 35.1335 371.421 34.8418C371.421 34.5501 371.374 34.2786 371.28 34.0273C371.188 33.7747 371.045 33.571 370.852 33.416C370.66 33.2598 370.413 33.1816 370.114 33.1816C369.815 33.1816 369.568 33.2598 369.374 33.416C369.181 33.571 369.038 33.7747 368.946 34.0273C368.854 34.2786 368.807 34.5501 368.807 34.8418C368.807 35.1335 368.854 35.4043 368.946 35.6543C369.038 35.9043 369.181 36.1061 369.374 36.2598C369.568 36.4121 369.815 36.4883 370.114 36.4883ZM373.113 32.6367L373.783 32.6367L373.783 36.375L375.432 36.375L375.432 32.6367L376.102 32.6367L376.102 36.375L377.75 36.375L377.75 32.6367L378.42 32.6367L378.42 37L373.113 37L373.113 32.6367ZM381.477 37.0918C381.057 37.0918 380.694 36.9987 380.39 36.8125C380.086 36.625 379.852 36.3633 379.688 36.0273C379.524 35.6914 379.442 35.2995 379.442 34.8516C379.442 34.4049 379.524 34.0111 379.688 33.6699C379.852 33.3275 380.082 33.0605 380.376 32.8691C380.67 32.6764 381.015 32.5801 381.409 32.5801C381.637 32.5801 381.862 32.6178 382.083 32.6934C382.304 32.7689 382.505 32.8913 382.686 33.0605C382.869 33.2298 383.014 33.4538 383.122 33.7324C383.23 34.0111 383.284 34.3542 383.284 34.7617L383.284 35.0449L379.921 35.0449L379.921 34.4668L382.602 34.4668C382.602 34.2194 382.554 33.9993 382.456 33.8066C382.358 33.6139 382.22 33.4616 382.04 33.3496C381.862 33.2376 381.651 33.1816 381.409 33.1816C381.142 33.1816 380.912 33.2474 380.718 33.3789C380.524 33.5104 380.375 33.6816 380.27 33.8926C380.166 34.1022 380.114 34.3275 380.114 34.5684L380.114 34.9551C380.114 35.2845 380.171 35.5631 380.286 35.791C380.401 36.0189 380.56 36.1921 380.765 36.3105C380.969 36.429 381.207 36.4883 381.477 36.4883C381.653 36.4883 381.813 36.4635 381.956 36.4141C382.099 36.3633 382.223 36.2871 382.327 36.1855C382.431 36.084 382.511 35.9577 382.567 35.8066L383.216 35.9883C383.148 36.2083 383.033 36.401 382.872 36.5664C382.711 36.7318 382.511 36.8607 382.274 36.9531C382.039 37.0456 381.773 37.0918 381.477 37.0918ZM386.08 37.0918C385.671 37.0918 385.319 36.9954 385.023 36.8027C384.728 36.6087 384.5 36.3424 384.34 36.0039C384.181 35.6641 384.101 35.2767 384.101 34.8418C384.101 34.3978 384.183 34.0059 384.347 33.666C384.512 33.3262 384.741 33.0605 385.035 32.8691C385.329 32.6764 385.674 32.5801 386.068 32.5801C386.375 32.5801 386.652 32.6367 386.898 32.75C387.144 32.8633 387.346 33.0221 387.502 33.2266C387.659 33.431 387.757 33.6699 387.795 33.9434L387.125 33.9434C387.074 33.7441 386.961 33.5677 386.785 33.4141C386.611 33.2591 386.375 33.1816 386.08 33.1816C385.818 33.1816 385.589 33.2493 385.392 33.3848C385.197 33.5202 385.045 33.7109 384.935 33.957C384.827 34.2018 384.773 34.4889 384.773 34.8184C384.773 35.1556 384.827 35.4492 384.933 35.6992C385.04 35.9492 385.191 36.1432 385.387 36.2812C385.583 36.4193 385.814 36.4883 386.08 36.4883C386.254 36.4883 386.413 36.4583 386.555 36.3984C386.696 36.3372 386.816 36.25 386.914 36.1367C387.013 36.0234 387.083 35.8867 387.125 35.7266L387.795 35.7266C387.757 35.9844 387.664 36.2161 387.515 36.4219C387.367 36.6276 387.171 36.791 386.928 36.9121C386.684 37.0319 386.402 37.0918 386.08 37.0918ZM388.772 37L388.772 32.6367L389.442 32.6367L389.442 34.5332L389.886 34.5332L391.454 32.6367L392.317 32.6367L390.558 34.7383L392.341 37L391.477 37L390.046 35.1582L389.442 35.1582L389.442 37L388.772 37ZM394.659 37.0918C394.265 37.0918 393.919 36.998 393.622 36.8105C393.327 36.623 393.096 36.3607 392.929 36.0234C392.764 35.6862 392.681 35.2923 392.681 34.8418C392.681 34.3861 392.764 33.9889 392.929 33.6504C393.096 33.3118 393.327 33.0488 393.622 32.8613C393.919 32.6738 394.265 32.5801 394.659 32.5801C395.053 32.5801 395.398 32.6738 395.695 32.8613C395.991 33.0488 396.223 33.3118 396.388 33.6504C396.553 33.9889 396.636 34.3861 396.636 34.8418C396.636 35.2923 396.553 35.6862 396.388 36.0234C396.223 36.3607 395.991 36.623 395.695 36.8105C395.398 36.998 395.053 37.0918 394.659 37.0918ZM394.659 36.4883C394.959 36.4883 395.205 36.4121 395.398 36.2598C395.59 36.1061 395.733 35.9043 395.825 35.6543C395.919 35.4043 395.966 35.1335 395.966 34.8418C395.966 34.5501 395.919 34.2786 395.825 34.0273C395.733 33.7747 395.59 33.571 395.398 33.416C395.205 33.2598 394.959 33.1816 394.659 33.1816C394.36 33.1816 394.113 33.2598 393.919 33.416C393.727 33.571 393.584 33.7747 393.491 34.0273C393.399 34.2786 393.353 34.5501 393.353 34.8418C393.353 35.1335 393.399 35.4043 393.491 35.6543C393.584 35.9043 393.727 36.1061 393.919 36.2598C394.113 36.4121 394.36 36.4883 394.659 36.4883ZM399.489 37.0918C399.068 37.0918 398.706 36.9987 398.401 36.8125C398.098 36.625 397.864 36.3633 397.7 36.0273C397.536 35.6914 397.454 35.2995 397.454 34.8516C397.454 34.4049 397.536 34.0111 397.7 33.6699C397.864 33.3275 398.093 33.0605 398.387 32.8691C398.682 32.6764 399.026 32.5801 399.42 32.5801C399.648 32.5801 399.873 32.6178 400.094 32.6934C400.316 32.7689 400.517 32.8913 400.698 33.0605C400.88 33.2298 401.025 33.4538 401.133 33.7324C401.241 34.0111 401.295 34.3542 401.295 34.7617L401.295 35.0449L397.932 35.0449L397.932 34.4668L400.614 34.4668C400.614 34.2194 400.565 33.9993 400.467 33.8066C400.37 33.6139 400.231 33.4616 400.051 33.3496C399.873 33.2376 399.663 33.1816 399.42 33.1816C399.154 33.1816 398.923 33.2474 398.729 33.3789C398.535 33.5104 398.386 33.6816 398.282 33.8926C398.178 34.1022 398.126 34.3275 398.126 34.5684L398.126 34.9551C398.126 35.2845 398.183 35.5631 398.297 35.791C398.412 36.0189 398.572 36.1921 398.776 36.3105C398.98 36.429 399.218 36.4883 399.489 36.4883C399.665 36.4883 399.824 36.4635 399.967 36.4141C400.111 36.3633 400.234 36.2871 400.338 36.1855C400.443 36.084 400.523 35.9577 400.579 35.8066L401.227 35.9883C401.159 36.2083 401.045 36.401 400.883 36.5664C400.722 36.7318 400.523 36.8607 400.286 36.9531C400.05 37.0456 399.784 37.0918 399.489 37.0918ZM326.148 48.25L326.148 46.375L326.512 46.375C326.6 46.2826 326.676 46.1823 326.74 46.0742C326.805 45.9661 326.862 45.8379 326.91 45.6895C326.958 45.541 326.999 45.3594 327.033 45.1445C327.068 44.9284 327.099 44.668 327.125 44.3633L327.273 42.6367L330.045 42.6367L330.045 46.375L330.717 46.375L330.717 48.25L330.045 48.25L330.045 47L326.818 47L326.818 48.25L326.148 48.25ZM327.273 46.375L329.375 46.375L329.375 43.2617L327.898 43.2617L327.783 44.3633C327.736 44.8203 327.678 45.2194 327.607 45.5605C327.537 45.9004 327.426 46.1719 327.273 46.375ZM331.602 47L331.602 42.6367L333.387 42.6367C333.856 42.6367 334.228 42.7428 334.504 42.9551C334.782 43.1673 334.92 43.4473 334.92 43.7949C334.92 44.0605 334.841 44.2656 334.684 44.4102C334.528 44.5547 334.327 44.653 334.08 44.7051C334.241 44.7272 334.397 44.7839 334.549 44.875C334.702 44.9661 334.828 45.0911 334.928 45.25C335.03 45.4076 335.08 45.6009 335.08 45.8301C335.08 46.0527 335.023 46.2526 334.909 46.4297C334.795 46.6055 334.633 46.7448 334.42 46.8477C334.208 46.9492 333.954 47 333.659 47L331.602 47ZM332.239 46.3867L333.659 46.3867C333.89 46.3867 334.071 46.332 334.202 46.2227C334.332 46.112 334.397 45.9622 334.397 45.7734C334.397 45.5482 334.332 45.3704 334.202 45.2402C334.071 45.11 333.89 45.0449 333.659 45.0449L332.239 45.0449L332.239 46.3867ZM332.239 44.4668L333.387 44.4668C333.567 44.4668 333.721 44.4414 333.85 44.3906C333.979 44.3398 334.078 44.2676 334.147 44.1738C334.216 44.0801 334.25 43.9694 334.25 43.8418C334.25 43.6569 334.174 43.5124 334.02 43.4082C333.866 43.3027 333.655 43.25 333.387 43.25L332.239 43.25L332.239 44.4668ZM336.76 46.0117L338.864 42.6367L339.635 42.6367L339.635 47L338.966 47L338.966 43.625L336.876 47L336.091 47L336.091 42.6367L336.76 42.6367L336.76 46.0117ZM340.592 47L342.363 44.7832L340.613 42.6367L341.408 42.6367L342.863 44.5L343.227 44.5L343.227 42.6367L343.898 42.6367L343.898 44.5L344.25 44.5L345.705 42.6367L346.5 42.6367L344.762 44.7832L346.523 47L345.717 47L344.238 45.125L343.898 45.125L343.898 47L343.227 47L343.227 45.125L342.887 45.125L341.398 47L340.592 47ZM349.125 47.0918C348.705 47.0918 348.342 46.9987 348.037 46.8125C347.734 46.625 347.5 46.3633 347.336 46.0273C347.172 45.6914 347.09 45.2995 347.09 44.8516C347.09 44.4049 347.172 44.0111 347.336 43.6699C347.5 43.3275 347.729 43.0605 348.024 42.8691C348.318 42.6764 348.662 42.5801 349.057 42.5801C349.285 42.5801 349.509 42.6178 349.731 42.6934C349.952 42.7689 350.153 42.8913 350.334 43.0605C350.516 43.2298 350.662 43.4538 350.77 43.7324C350.878 44.0111 350.932 44.3542 350.932 44.7617L350.932 45.0449L347.569 45.0449L347.569 44.4668L350.25 44.4668C350.25 44.2194 350.201 43.9994 350.104 43.8066C350.006 43.6139 349.867 43.4616 349.688 43.3496C349.509 43.2376 349.299 43.1816 349.057 43.1816C348.79 43.1816 348.559 43.2474 348.365 43.3789C348.171 43.5104 348.022 43.6816 347.918 43.8926C347.814 44.1022 347.762 44.3275 347.762 44.5684L347.762 44.9551C347.762 45.2845 347.819 45.5631 347.934 45.791C348.048 46.0189 348.208 46.1921 348.412 46.3105C348.617 46.429 348.854 46.4883 349.125 46.4883C349.301 46.4883 349.46 46.4635 349.604 46.4141C349.747 46.3633 349.871 46.2871 349.975 46.1855C350.079 46.084 350.159 45.9577 350.215 45.8066L350.863 45.9883C350.796 46.2083 350.681 46.401 350.52 46.5664C350.358 46.7318 350.159 46.8607 349.922 46.9531C349.686 47.0456 349.421 47.0918 349.125 47.0918ZM354.874 44.5117L354.874 45.1367L352.466 45.1367L352.466 44.5117L354.874 44.5117ZM352.624 42.6367L352.624 47L351.954 47L351.954 42.6367L352.624 42.6367ZM355.386 42.6367L355.386 47L354.716 47L354.716 42.6367L355.386 42.6367ZM357.283 46.0117L359.387 42.6367L360.158 42.6367L360.158 47L359.488 47L359.488 43.625L357.398 47L356.613 47L356.613 42.6367L357.283 42.6367L357.283 46.0117ZM363.216 47.0918C362.796 47.0918 362.433 46.9987 362.128 46.8125C361.825 46.625 361.591 46.3633 361.427 46.0273C361.263 45.6914 361.181 45.2995 361.181 44.8516C361.181 44.4049 361.263 44.0111 361.427 43.6699C361.591 43.3275 361.82 43.0605 362.115 42.8691C362.409 42.6764 362.753 42.5801 363.148 42.5801C363.376 42.5801 363.6 42.6178 363.822 42.6934C364.043 42.7689 364.244 42.8913 364.425 43.0605C364.607 43.2298 364.753 43.4538 364.861 43.7324C364.969 44.0111 365.023 44.3542 365.023 44.7617L365.023 45.0449L361.659 45.0449L361.659 44.4668L364.341 44.4668C364.341 44.2194 364.292 43.9994 364.195 43.8066C364.097 43.6139 363.958 43.4616 363.779 43.3496C363.6 43.2376 363.39 43.1816 363.148 43.1816C362.881 43.1816 362.65 43.2474 362.456 43.3789C362.262 43.5104 362.113 43.6816 362.009 43.8926C361.905 44.1022 361.853 44.3275 361.853 44.5684L361.853 44.9551C361.853 45.2845 361.91 45.5631 362.025 45.791C362.139 46.0189 362.299 46.1921 362.503 46.3105C362.708 46.429 362.945 46.4883 363.216 46.4883C363.392 46.4883 363.551 46.4635 363.695 46.4141C363.838 46.3633 363.962 46.2871 364.066 46.1855C364.17 46.084 364.25 45.9577 364.306 45.8066L364.954 45.9883C364.887 46.2083 364.772 46.401 364.611 46.5664C364.449 46.7318 364.25 46.8607 364.013 46.9531C363.777 47.0456 363.512 47.0918 363.216 47.0918Z" fill="rgb(175,2,7)" fill-rule="nonzero" />
</svg>
