<svg viewBox="0 0 20 20" xmlns="http://www.w3.org/2000/svg" xmlns:xlink="http://www.w3.org/1999/xlink" width="20.000000" height="20.000000" fill="none">
	<rect id="gavel" width="20.000000" height="20.000000" x="0.000000" y="0.000000" fill="rgb(255,255,255)" fill-opacity="0" />
	<path id="矢量 133" d="M6.73333 4.36816L4.375 6.72383L16.1534 18.5155L18.5117 16.1598L6.73333 4.36816Z" fill="rgb(46,125,50)" fill-rule="evenodd" />
	<path id="矢量 134" d="M10.2619 0.832031L7.90527 3.18936L12.6199 7.9027L14.9766 5.54536L10.2619 0.832031Z" fill="rgb(46,125,50)" fill-rule="evenodd" />
	<path id="矢量 135" d="M2.77105 8.32422C2.77105 8.32422 1.98041 11.7034 2.50026 12.9169C2.5249 12.9745 3.12124 13.651 3.1773 13.6788C3.22377 13.7019 3.27573 13.7257 3.33381 13.7502C4.54295 14.26 7.48505 13.0382 7.48505 13.0382L2.77105 8.32422Z" fill="rgb(46,125,50)" fill-rule="evenodd" />
	<path id="矢量 136" d="M2.12207 0L0 2.12167L5.55556 7.67723L7.67763 5.55555L2.12207 0Z" fill="rgb(46,125,50)" fill-rule="evenodd" transform="matrix(0,1,-1,0,11.8438,4.1665)" />
</svg>
