<svg viewBox="0 0 203.457 61.4341" xmlns="http://www.w3.org/2000/svg" xmlns:xlink="http://www.w3.org/1999/xlink" width="203.457031" height="61.434082" fill="none" customFrame="#000000">
	<g id="association-1">
		<path id="" d="M0.660673 28.4036L0.660673 24.5229L16.0704 24.5229L16.0704 28.4036L10.7374 28.4036L10.7374 42.2539L5.99367 42.2539L5.99367 28.4036L0.660673 28.4036ZM34.2154 33.3914C34.2154 35.3635 33.8305 37.0261 33.0607 38.3792C32.2949 39.7322 31.2592 40.758 29.9538 41.4563C28.6483 42.1507 27.194 42.4979 25.5909 42.4979C23.976 42.4979 22.5177 42.1468 21.2162 41.4444C19.9147 40.7421 18.881 39.7144 18.1152 38.3613C17.3494 37.0082 16.9665 35.3516 16.9665 33.3914C16.9665 31.4153 17.3494 29.7507 18.1152 28.3976C18.881 27.0445 19.9147 26.0208 21.2162 25.3264C22.5177 24.628 23.976 24.2788 25.5909 24.2788C27.194 24.2788 28.6483 24.628 29.9538 25.3264C31.2592 26.0208 32.2949 27.0445 33.0607 28.3976C33.8305 29.7507 34.2154 31.4153 34.2154 33.3914ZM29.2633 33.3914C29.2633 32.3279 29.1225 31.4312 28.8407 30.7011C28.563 29.9709 28.1503 29.4174 27.6027 29.0404C27.0591 28.6595 26.3885 28.4691 25.5909 28.4691C24.7934 28.4691 24.1208 28.6595 23.5732 29.0404C23.0296 29.4174 22.6169 29.9709 22.3352 30.7011C22.0574 31.4312 21.9185 32.3279 21.9185 33.3914C21.9185 34.4508 22.0574 35.3456 22.3352 36.0757C22.6169 36.8058 23.0296 37.3614 23.5732 37.7423C24.1208 38.1192 24.7934 38.3077 25.5909 38.3077C26.3885 38.3077 27.0591 38.1192 27.6027 37.7423C28.1503 37.3614 28.563 36.8058 28.8407 36.0757C29.1225 35.3456 29.2633 34.4508 29.2633 33.3914ZM37.502 24.5229L42.1446 24.5229L42.1446 30.0999C42.1446 30.6515 42.2398 31.1038 42.4303 31.457C42.6247 31.8101 42.952 32.07 43.4123 32.2367C43.8726 32.4033 44.4996 32.4867 45.2932 32.4867C45.44 32.4867 45.6761 32.4827 46.0015 32.4748C46.3268 32.4668 46.68 32.4529 47.0609 32.4331C47.4418 32.4132 47.793 32.3875 48.1144 32.3557C48.4358 32.324 48.662 32.2883 48.793 32.2486L48.793 35.8793C48.6422 35.9349 48.3942 35.9805 48.049 36.0162C47.7037 36.0519 47.3327 36.0837 46.9359 36.1114C46.5391 36.1392 46.184 36.161 45.8705 36.1769C45.561 36.1888 45.3686 36.1948 45.2932 36.1948C43.7377 36.1948 42.3727 35.9725 41.1982 35.5281C40.0276 35.0837 39.119 34.4111 38.4722 33.5104C37.8254 32.6097 37.502 31.4728 37.502 30.0999L37.502 24.5229ZM47.8942 24.5229L52.5665 24.5229L52.5665 42.2539L47.8942 42.2539L47.8942 24.5229ZM66.8205 42.2539L61.3804 35.0877L60.7078 35.0877L60.7078 42.2539L55.8926 42.2539L55.8926 24.5229L60.7078 24.5229L60.7078 31.207L61.3268 31.207L66.4217 24.5229L72.4809 24.5229L65.7253 33.0402L72.8618 42.2539L66.8205 42.2539ZM78.7494 42.2539L73.5533 42.2539L79.4041 24.5229L85.9871 24.5229L91.8379 42.2539L86.6418 42.2539L82.767 29.4035L82.6242 29.4035L78.7494 42.2539ZM77.7792 35.2603L87.5465 35.2603L87.5465 38.8613L77.7792 38.8613L77.7792 35.2603Z" fill="rgb(0,0,0)" fill-rule="nonzero" />
		<path id="" d="M116.6 42.2539L116.6 24.5229L124.254 24.5229C125.568 24.5229 126.718 24.7828 127.706 25.3026C128.694 25.8224 129.462 26.5525 130.01 27.4929C130.557 28.4333 130.831 29.5325 130.831 30.7903C130.831 32.0601 130.549 33.1612 129.986 34.0937C129.426 35.0222 128.639 35.7384 127.623 36.2424C126.611 36.7423 125.431 36.9923 124.081 36.9923L119.51 36.9923L119.51 33.2485L123.111 33.2485C123.675 33.2485 124.157 33.1493 124.558 32.9509C124.962 32.7525 125.272 32.4688 125.486 32.0998C125.704 31.7308 125.814 31.2943 125.814 30.7903C125.814 30.2824 125.704 29.8479 125.486 29.4868C125.272 29.1258 124.962 28.85 124.558 28.6595C124.157 28.4651 123.675 28.3679 123.111 28.3679L121.415 28.3679L121.415 42.2539L116.6 42.2539ZM149.776 33.3914C149.776 35.3635 149.391 37.0261 148.622 38.3792C147.856 39.7322 146.82 40.758 145.515 41.4563C144.209 42.1507 142.755 42.4979 141.152 42.4979C139.537 42.4979 138.079 42.1468 136.777 41.4444C135.476 40.7421 134.442 39.7144 133.676 38.3613C132.91 37.0082 132.527 35.3516 132.527 33.3914C132.527 31.4153 132.91 29.7507 133.676 28.3976C134.442 27.0445 135.476 26.0208 136.777 25.3264C138.079 24.628 139.537 24.2788 141.152 24.2788C142.755 24.2788 144.209 24.628 145.515 25.3264C146.82 26.0208 147.856 27.0445 148.622 28.3976C149.391 29.7507 149.776 31.4153 149.776 33.3914ZM144.824 33.3914C144.824 32.3279 144.683 31.4312 144.402 30.7011C144.124 29.9709 143.711 29.4174 143.164 29.0404C142.62 28.6595 141.949 28.4691 141.152 28.4691C140.354 28.4691 139.682 28.6595 139.134 29.0404C138.591 29.4174 138.178 29.9709 137.896 30.7011C137.618 31.4312 137.479 32.3279 137.479 33.3914C137.479 34.4508 137.618 35.3456 137.896 36.0757C138.178 36.8058 138.591 37.3614 139.134 37.7423C139.682 38.1192 140.354 38.3077 141.152 38.3077C141.949 38.3077 142.62 38.1192 143.164 37.7423C143.711 37.3614 144.124 36.8058 144.402 36.0757C144.683 35.3456 144.824 34.4508 144.824 33.3914ZM168.544 31.1713L163.663 31.1713C163.628 30.7665 163.536 30.4015 163.39 30.0761C163.243 29.7467 163.04 29.463 162.783 29.225C162.525 28.9829 162.213 28.7964 161.848 28.6655C161.487 28.5345 161.076 28.4691 160.616 28.4691C159.807 28.4691 159.122 28.6655 158.563 29.0583C158.007 29.4511 157.586 30.0146 157.301 30.7487C157.015 31.4828 156.872 32.3637 156.872 33.3914C156.872 34.4746 157.017 35.3813 157.307 36.1114C157.6 36.8415 158.025 37.3911 158.58 37.7601C159.136 38.1252 159.803 38.3077 160.58 38.3077C161.025 38.3077 161.422 38.2522 161.771 38.1411C162.124 38.026 162.429 37.8613 162.687 37.647C162.949 37.4328 163.161 37.1749 163.324 36.8733C163.491 36.5717 163.604 36.2305 163.663 35.8495L168.544 35.8793C168.489 36.6332 168.278 37.399 167.913 38.1768C167.548 38.9505 167.032 39.6648 166.366 40.3195C165.699 40.9742 164.876 41.502 163.896 41.9027C162.915 42.2995 161.775 42.4979 160.473 42.4979C158.846 42.4979 157.388 42.1488 156.098 41.4504C154.809 40.752 153.789 39.7243 153.039 38.3672C152.293 37.0102 151.92 35.3516 151.92 33.3914C151.92 31.4153 152.301 29.7507 153.063 28.3976C153.825 27.0445 154.852 26.0208 156.146 25.3264C157.44 24.628 158.882 24.2788 160.473 24.2788C161.596 24.2788 162.628 24.4336 163.568 24.7431C164.509 25.0486 165.334 25.495 166.044 26.0823C166.755 26.6656 167.326 27.3838 167.758 28.2369C168.191 29.09 168.453 30.0682 168.544 31.1713ZM170.244 28.4036L170.244 24.5229L185.654 24.5229L185.654 28.4036L180.321 28.4036L180.321 42.2539L175.577 42.2539L175.577 28.4036L170.244 28.4036ZM189.808 42.2539L184.612 42.2539L190.463 24.5229L197.046 24.5229L202.897 42.2539L197.701 42.2539L193.826 29.4035L193.683 29.4035L189.808 42.2539ZM188.838 35.2603L198.606 35.2603L198.606 38.8613L188.838 38.8613L188.838 35.2603Z" fill="rgb(0,0,0)" fill-rule="nonzero" />
		<path id="" d="M117.661 47.8736L118.422 47.8736C118.66 47.8736 118.872 47.9223 119.056 48.0196C119.242 48.1164 119.387 48.2541 119.492 48.4329C119.597 48.6118 119.649 48.8233 119.649 49.0677C119.649 49.2987 119.597 49.4991 119.492 49.669C119.387 49.8383 119.242 49.9694 119.056 50.0623C118.872 50.1546 118.66 50.2007 118.422 50.2007L117.661 50.2007C117.42 50.2007 117.207 50.1549 117.021 50.0632C116.836 49.9716 116.691 49.8405 116.585 49.67C116.48 49.4995 116.428 49.2968 116.428 49.062C116.428 48.8176 116.481 48.6067 116.588 48.4291C116.695 48.251 116.841 48.1138 117.027 48.0177C117.213 47.9216 117.424 47.8736 117.661 47.8736ZM117.661 48.5064C117.565 48.5064 117.476 48.5246 117.395 48.5608C117.314 48.5971 117.249 48.656 117.2 48.7374C117.152 48.8189 117.127 48.9271 117.127 49.062C117.127 49.1861 117.152 49.2853 117.203 49.3598C117.254 49.4336 117.319 49.4867 117.4 49.5192C117.482 49.551 117.569 49.5669 117.661 49.5669L118.427 49.5669C118.522 49.5669 118.608 49.55 118.686 49.5163C118.764 49.4826 118.827 49.4291 118.873 49.356C118.92 49.2821 118.944 49.1861 118.944 49.0677C118.944 48.9322 118.92 48.8233 118.873 48.7413C118.827 48.6585 118.764 48.5987 118.686 48.5618C118.608 48.5249 118.522 48.5064 118.427 48.5064L117.661 48.5064ZM118.4 47.5405L118.4 50.55L117.677 50.55L117.677 47.5405L118.4 47.5405ZM120.004 50.4336L120.004 47.5901L122.054 47.5901L122.054 48.2125L120.777 48.2125L120.777 48.7012L121.948 48.7012L121.948 49.3225L120.777 49.3225L120.777 49.8113L122.048 49.8113L122.048 50.4336L120.004 50.4336ZM122.342 51.117L122.342 49.8389L122.543 49.8389C122.609 49.7982 122.669 49.7409 122.723 49.6671C122.777 49.5933 122.823 49.4874 122.862 49.3493C122.9 49.2112 122.929 49.0266 122.948 48.7957L123.042 47.5901L125.052 47.5901L125.052 49.8389L125.353 49.8389L125.353 51.117L124.608 51.117L124.608 50.4336L123.087 50.4336L123.087 51.117L122.342 51.117ZM123.426 49.8389L124.309 49.8389L124.309 48.2125L123.736 48.2125L123.692 48.7957C123.679 48.9694 123.66 49.1215 123.633 49.2519C123.607 49.3817 123.576 49.4947 123.54 49.5908C123.505 49.6862 123.466 49.7689 123.426 49.8389ZM125.614 50.4336L125.614 47.5901L127.663 47.5901L127.663 48.2125L126.386 48.2125L126.386 48.7012L127.557 48.7012L127.557 49.3225L126.386 49.3225L126.386 49.8113L127.657 49.8113L127.657 50.4336L125.614 50.4336ZM128.046 50.4336L128.046 47.5901L129.273 47.5901C129.484 47.5901 129.669 47.6318 129.827 47.7152C129.986 47.7985 130.109 47.9156 130.196 48.0664C130.284 48.2172 130.328 48.3935 130.328 48.5952C130.328 48.7988 130.283 48.9754 130.193 49.125C130.103 49.2739 129.977 49.3887 129.814 49.4695C129.651 49.5497 129.462 49.5898 129.246 49.5898L128.513 49.5898L128.513 48.9894L129.09 48.9894C129.181 48.9894 129.258 48.9735 129.322 48.9417C129.387 48.9099 129.437 48.8644 129.471 48.8052C129.506 48.746 129.524 48.676 129.524 48.5952C129.524 48.5138 129.506 48.4441 129.471 48.3862C129.437 48.3283 129.387 48.284 129.322 48.2535C129.258 48.2223 129.181 48.2067 129.09 48.2067L128.818 48.2067L128.818 50.4336L128.046 50.4336ZM130.995 50.4336L130.162 50.4336L131.1 47.5901L132.156 47.5901L133.094 50.4336L132.261 50.4336L131.639 48.3728L131.616 48.3728L130.995 50.4336ZM130.839 49.312L132.406 49.312L132.406 49.8895L130.839 49.8895L130.839 49.312ZM133.272 50.4336L133.272 49.8389L133.35 49.8284C133.444 49.8138 133.522 49.7731 133.585 49.7063C133.647 49.6388 133.695 49.5319 133.729 49.3855C133.763 49.2385 133.784 49.0381 133.794 48.7842L133.839 47.5901L135.898 47.5901L135.898 50.4336L135.154 50.4336L135.154 48.1895L134.549 48.1895L134.505 49.0839C134.488 49.4155 134.444 49.6799 134.371 49.8771C134.299 50.0744 134.19 50.2166 134.042 50.3038C133.895 50.3903 133.701 50.4336 133.461 50.4336L133.272 50.4336ZM136.754 48.5456L137.343 48.5456C137.582 48.5456 137.791 48.5841 137.97 48.6611C138.149 48.7374 138.289 48.8456 138.388 48.9856C138.488 49.1256 138.537 49.2898 138.537 49.4781C138.537 49.6671 138.488 49.8335 138.388 49.9773C138.289 50.1205 138.149 50.2325 137.97 50.3133C137.791 50.3935 137.582 50.4336 137.343 50.4336L136.281 50.4336L136.281 47.5901L137.054 47.5901L137.054 49.8284L137.343 49.8284C137.436 49.8284 137.515 49.8132 137.578 49.7826C137.641 49.7521 137.689 49.7101 137.722 49.6566C137.755 49.6025 137.771 49.5411 137.77 49.4724C137.771 49.3757 137.735 49.2952 137.662 49.2309C137.588 49.1666 137.482 49.1345 137.343 49.1345L136.754 49.1345L136.754 48.5456ZM138.975 50.4336L138.975 47.5901L139.747 47.5901L139.747 48.7012L140.769 48.7012L140.769 47.5901L141.541 47.5901L141.541 50.4336L140.769 50.4336L140.769 49.3225L139.747 49.3225L139.747 50.4336L138.975 50.4336ZM142.646 50.4336L141.813 50.4336L142.751 47.5901L143.807 47.5901L144.745 50.4336L143.912 50.4336L143.291 48.3728L143.268 48.3728L142.646 50.4336ZM142.491 49.312L144.057 49.312L144.057 49.8895L142.491 49.8895L142.491 49.312ZM147.366 50.4336L146.594 50.4336L146.594 48.2067L146.322 48.2067C146.233 48.2067 146.155 48.2191 146.09 48.244C146.026 48.2681 145.976 48.306 145.941 48.3575C145.906 48.4084 145.889 48.4746 145.889 48.5561C145.889 48.6369 145.906 48.7024 145.941 48.7527C145.976 48.8023 146.026 48.8386 146.09 48.8615C146.155 48.8838 146.233 48.8949 146.322 48.8949L146.9 48.8949L146.9 49.4953L146.167 49.4953C145.951 49.4953 145.762 49.4597 145.599 49.3884C145.436 49.3171 145.309 49.2115 145.219 49.0715C145.129 48.9315 145.084 48.7597 145.084 48.5561C145.084 48.3544 145.128 48.1816 145.216 48.0378C145.304 47.8933 145.427 47.7826 145.585 47.7056C145.744 47.6286 145.929 47.5901 146.139 47.5901L147.366 47.5901L147.366 50.4336ZM145.701 49.1288L146.523 49.1288L145.828 50.4336L144.99 50.4336L145.701 49.1288ZM151.165 48.6563L150.382 48.6563C150.377 48.5914 150.362 48.5329 150.338 48.4807C150.315 48.4279 150.282 48.3824 150.241 48.3442C150.2 48.3054 150.15 48.2755 150.091 48.2545C150.033 48.2335 149.967 48.223 149.894 48.223C149.764 48.223 149.654 48.2545 149.564 48.3175C149.475 48.3804 149.408 48.4708 149.362 48.5885C149.316 48.7063 149.293 48.8475 149.293 49.0123C149.293 49.1861 149.317 49.3315 149.363 49.4485C149.41 49.5656 149.478 49.6538 149.567 49.7129C149.656 49.7715 149.763 49.8008 149.888 49.8008C149.959 49.8008 150.023 49.7918 150.079 49.774C150.135 49.7556 150.184 49.7292 150.226 49.6948C150.268 49.6604 150.302 49.6191 150.328 49.5707C150.355 49.5224 150.373 49.4676 150.382 49.4065L151.165 49.4113C151.156 49.5322 151.122 49.655 151.064 49.7798C151.005 49.9038 150.923 50.0184 150.816 50.1234C150.709 50.2284 150.577 50.313 150.42 50.3773C150.262 50.4409 150.079 50.4727 149.871 50.4727C149.61 50.4727 149.376 50.4167 149.169 50.3047C148.962 50.1927 148.799 50.0279 148.679 49.8103C148.559 49.5927 148.499 49.3267 148.499 49.0123C148.499 48.6954 148.56 48.4285 148.682 48.2115C148.805 47.9945 148.969 47.8303 149.177 47.719C149.384 47.607 149.616 47.551 149.871 47.551C150.051 47.551 150.216 47.5758 150.367 47.6254C150.518 47.6744 150.65 47.746 150.764 47.8402C150.878 47.9337 150.97 48.0489 151.039 48.1857C151.108 48.3225 151.15 48.4794 151.165 48.6563ZM151.515 50.4336L151.515 47.5901L153.564 47.5901L153.564 48.2125L152.287 48.2125L152.287 48.7012L153.458 48.7012L153.458 49.3225L152.287 49.3225L152.287 49.8113L153.559 49.8113L153.559 50.4336L151.515 50.4336ZM153.87 48.2125L153.87 47.5901L156.341 47.5901L156.341 48.2125L155.486 48.2125L155.486 50.4336L154.725 50.4336L154.725 48.2125L153.87 48.2125ZM157.119 48.5456L157.707 48.5456C157.947 48.5456 158.156 48.5841 158.335 48.6611C158.514 48.7374 158.653 48.8456 158.753 48.9856C158.853 49.1256 158.902 49.2898 158.902 49.4781C158.902 49.6671 158.853 49.8335 158.753 49.9773C158.653 50.1205 158.514 50.2325 158.335 50.3133C158.156 50.3935 157.947 50.4336 157.707 50.4336L156.646 50.4336L156.646 47.5901L157.418 47.5901L157.418 49.8284L157.707 49.8284C157.801 49.8284 157.879 49.8132 157.942 49.7826C158.006 49.7521 158.054 49.7101 158.086 49.6566C158.119 49.6025 158.136 49.5411 158.135 49.4724C158.136 49.3757 158.099 49.2952 158.026 49.2309C157.953 49.1666 157.847 49.1345 157.707 49.1345L157.119 49.1345L157.119 48.5456ZM163.072 49.8504L163.038 51.1056L162.322 51.1056L162.322 50.4336L162.122 50.4336L162.122 49.8504L163.072 49.8504ZM160.117 50.4336L160.117 47.5901L160.862 47.5901L160.862 49.8389L161.856 49.8389L161.856 47.5901L162.611 47.5901L162.611 50.4336L160.117 50.4336ZM163.333 50.4336L163.333 47.5901L165.382 47.5901L165.382 48.2125L164.105 48.2125L164.105 48.7012L165.276 48.7012L165.276 49.3225L164.105 49.3225L164.105 49.8113L165.376 49.8113L165.376 50.4336L163.333 50.4336ZM165.765 50.4336L165.765 47.5901L166.538 47.5901L166.538 48.7012L167.559 48.7012L167.559 47.5901L168.331 47.5901L168.331 50.4336L167.559 50.4336L167.559 49.3225L166.538 49.3225L166.538 50.4336L165.765 50.4336ZM168.62 48.2125L168.62 47.5901L171.091 47.5901L171.091 48.2125L170.236 48.2125L170.236 50.4336L169.475 50.4336L169.475 48.2125L168.62 48.2125ZM171.38 50.4336L171.38 47.5901L172.607 47.5901C172.818 47.5901 173.003 47.6318 173.161 47.7152C173.319 47.7985 173.443 47.9156 173.53 48.0664C173.618 48.2172 173.662 48.3935 173.662 48.5952C173.662 48.7988 173.617 48.9754 173.527 49.125C173.437 49.2739 173.311 49.3887 173.148 49.4695C172.985 49.5497 172.796 49.5898 172.58 49.5898L171.847 49.5898L171.847 48.9894L172.424 48.9894C172.514 48.9894 172.592 48.9735 172.656 48.9417C172.721 48.9099 172.771 48.8644 172.805 48.8052C172.84 48.746 172.857 48.676 172.857 48.5952C172.857 48.5138 172.84 48.4441 172.805 48.3862C172.771 48.3283 172.721 48.284 172.656 48.2535C172.592 48.2223 172.514 48.2067 172.424 48.2067L172.152 48.2067L172.152 50.4336L171.38 50.4336ZM176.7 49.0123C176.7 49.3286 176.639 49.5952 176.515 49.8122C176.392 50.0292 176.226 50.1937 176.017 50.3057C175.808 50.417 175.574 50.4727 175.317 50.4727C175.058 50.4727 174.824 50.4164 174.616 50.3038C174.407 50.1911 174.241 50.0263 174.118 49.8093C173.996 49.5924 173.934 49.3267 173.934 49.0123C173.934 48.6954 173.996 48.4285 174.118 48.2115C174.241 47.9945 174.407 47.8303 174.616 47.719C174.824 47.607 175.058 47.551 175.317 47.551C175.574 47.551 175.808 47.607 176.017 47.719C176.226 47.8303 176.392 47.9945 176.515 48.2115C176.639 48.4285 176.7 48.6954 176.7 49.0123ZM175.906 49.0123C175.906 48.8418 175.884 48.698 175.838 48.5809C175.794 48.4638 175.728 48.375 175.64 48.3146C175.553 48.2535 175.445 48.223 175.317 48.223C175.189 48.223 175.081 48.2535 174.994 48.3146C174.906 48.375 174.84 48.4638 174.795 48.5809C174.751 48.698 174.728 48.8418 174.728 49.0123C174.728 49.1822 174.751 49.3257 174.795 49.4428C174.84 49.5599 174.906 49.649 174.994 49.7101C175.081 49.7705 175.189 49.8008 175.317 49.8008C175.445 49.8008 175.553 49.7705 175.64 49.7101C175.728 49.649 175.794 49.5599 175.838 49.4428C175.884 49.3257 175.906 49.1822 175.906 49.0123ZM177.056 50.4336L177.056 47.5901L178.289 47.5901C178.505 47.5901 178.687 47.6194 178.835 47.6779C178.982 47.7358 179.094 47.8182 179.169 47.9251C179.245 48.0314 179.282 48.1568 179.282 48.3012C179.282 48.4056 179.26 48.501 179.214 48.5876C179.168 48.6735 179.104 48.7454 179.021 48.8033C178.939 48.8612 178.843 48.901 178.733 48.9226L178.733 48.9512C178.855 48.9557 178.966 48.9866 179.066 49.0438C179.166 49.1005 179.245 49.1784 179.304 49.2777C179.364 49.377 179.393 49.4937 179.393 49.628C179.393 49.7839 179.353 49.9226 179.272 50.0442C179.191 50.1651 179.076 50.2602 178.927 50.3296C178.778 50.3989 178.601 50.4336 178.394 50.4336L177.056 50.4336ZM177.828 49.817L178.189 49.817C178.318 49.817 178.415 49.7928 178.48 49.7444C178.545 49.6954 178.577 49.6235 178.577 49.5287C178.577 49.4619 178.562 49.4053 178.531 49.3588C178.501 49.3124 178.457 49.2774 178.401 49.2538C178.345 49.2296 178.278 49.2176 178.2 49.2176L177.828 49.2176L177.828 49.817ZM177.828 48.7393L178.144 48.7393C178.212 48.7393 178.272 48.7288 178.323 48.7078C178.375 48.6868 178.415 48.6563 178.444 48.6162C178.474 48.5755 178.488 48.5259 178.488 48.4673C178.488 48.3795 178.457 48.3124 178.394 48.2659C178.331 48.2188 178.251 48.1953 178.155 48.1953L177.828 48.1953L177.828 48.7393ZM119.194 54.0123C119.194 54.3286 119.132 54.5952 119.009 54.8122C118.886 55.0292 118.72 55.1937 118.51 55.3057C118.301 55.417 118.068 55.4727 117.811 55.4727C117.552 55.4727 117.318 55.4164 117.109 55.3038C116.9 55.1911 116.735 55.0263 116.612 54.8093C116.489 54.5924 116.428 54.3267 116.428 54.0123C116.428 53.6954 116.489 53.4285 116.612 53.2115C116.735 52.9945 116.9 52.8303 117.109 52.719C117.318 52.607 117.552 52.551 117.811 52.551C118.068 52.551 118.301 52.607 118.51 52.719C118.72 52.8303 118.886 52.9945 119.009 53.2115C119.132 53.4285 119.194 53.6954 119.194 54.0123ZM118.4 54.0123C118.4 53.8418 118.377 53.698 118.332 53.5809C118.287 53.4638 118.221 53.375 118.133 53.3146C118.046 53.2535 117.939 53.223 117.811 53.223C117.683 53.223 117.575 53.2535 117.487 53.3146C117.4 53.375 117.334 53.4638 117.289 53.5809C117.244 53.698 117.222 53.8418 117.222 54.0123C117.222 54.1822 117.244 54.3257 117.289 54.4428C117.334 54.5599 117.4 54.649 117.487 54.7101C117.575 54.7705 117.683 54.8008 117.811 54.8008C117.939 54.8008 118.046 54.7705 118.133 54.7101C118.221 54.649 118.287 54.5599 118.332 54.4428C118.377 54.3257 118.4 54.1822 118.4 54.0123ZM119.549 55.4336L119.549 52.5901L121.549 52.5901L121.549 53.2125L120.321 53.2125L120.321 53.5456L120.61 53.5456C120.849 53.5456 121.058 53.5841 121.237 53.6611C121.415 53.7374 121.555 53.8456 121.654 53.9856C121.754 54.1256 121.804 54.2898 121.804 54.4781C121.804 54.6671 121.754 54.8335 121.654 54.9773C121.555 55.1205 121.415 55.2325 121.237 55.3133C121.058 55.3935 120.849 55.4336 120.61 55.4336L119.549 55.4336ZM120.321 54.8284L120.61 54.8284C120.702 54.8284 120.78 54.8132 120.843 54.7826C120.907 54.7521 120.955 54.7101 120.988 54.6566C121.021 54.6025 121.037 54.5411 121.037 54.4724C121.037 54.3757 121.001 54.2952 120.927 54.2309C120.854 54.1666 120.748 54.1345 120.61 54.1345L120.321 54.1345L120.321 54.8284ZM122.076 55.4336L122.076 52.5901L123.303 52.5901C123.514 52.5901 123.699 52.6318 123.857 52.7152C124.015 52.7985 124.139 52.9156 124.226 53.0664C124.314 53.2172 124.358 53.3935 124.358 53.5952C124.358 53.7988 124.313 53.9754 124.223 54.125C124.133 54.2739 124.007 54.3887 123.844 54.4695C123.681 54.5497 123.492 54.5898 123.276 54.5898L122.543 54.5898L122.543 53.9894L123.12 53.9894C123.211 53.9894 123.288 53.9735 123.352 53.9417C123.417 53.9099 123.467 53.8644 123.501 53.8052C123.536 53.746 123.554 53.676 123.554 53.5952C123.554 53.5138 123.536 53.4441 123.501 53.3862C123.467 53.3283 123.417 53.284 123.352 53.2535C123.288 53.2223 123.211 53.2067 123.12 53.2067L122.848 53.2067L122.848 55.4336L122.076 55.4336ZM125.025 55.4336L124.192 55.4336L125.13 52.5901L126.186 52.5901L127.124 55.4336L126.291 55.4336L125.669 53.3728L125.646 53.3728L125.025 55.4336ZM124.869 54.312L126.436 54.312L126.436 54.8895L124.869 54.8895L124.869 54.312ZM128.512 55.4727C128.288 55.4727 128.089 55.4342 127.915 55.3572C127.742 55.2796 127.606 55.1727 127.507 55.0365C127.408 54.9003 127.358 54.7438 127.357 54.5669L128.135 54.5669C128.136 54.6216 128.152 54.6706 128.186 54.7139C128.219 54.7565 128.264 54.7899 128.321 54.8141C128.378 54.8383 128.444 54.8504 128.518 54.8504C128.589 54.8504 128.652 54.8377 128.707 54.8122C128.761 54.7868 128.804 54.7514 128.835 54.7063C128.865 54.6611 128.88 54.6092 128.879 54.5507C128.88 54.4934 128.863 54.4425 128.827 54.398C128.791 54.3534 128.741 54.3187 128.677 54.2939C128.613 54.2691 128.54 54.2567 128.457 54.2567L128.168 54.2567L128.168 53.7231L128.457 53.7231C128.534 53.7231 128.601 53.7107 128.66 53.6859C128.719 53.6604 128.765 53.6258 128.797 53.5818C128.83 53.5373 128.847 53.4864 128.846 53.4291C128.847 53.3731 128.833 53.3241 128.805 53.2821C128.778 53.2395 128.739 53.2061 128.69 53.1819C128.64 53.1577 128.583 53.1456 128.518 53.1456C128.448 53.1456 128.385 53.158 128.33 53.1829C128.275 53.2077 128.232 53.2424 128.2 53.2869C128.169 53.3315 128.152 53.3824 128.151 53.4396L127.412 53.4396C127.414 53.2659 127.462 53.1125 127.557 52.9796C127.651 52.8459 127.781 52.7412 127.947 52.6655C128.113 52.5892 128.303 52.551 128.518 52.551C128.728 52.551 128.914 52.5866 129.075 52.6579C129.237 52.7292 129.363 52.8272 129.454 52.9519C129.546 53.0766 129.591 53.2188 129.59 53.3785C129.592 53.5376 129.537 53.6681 129.426 53.7699C129.316 53.8717 129.176 53.9322 129.006 53.9512L129.006 53.9732C129.236 53.998 129.409 54.068 129.525 54.1832C129.641 54.2984 129.697 54.4431 129.696 54.6175C129.696 54.7842 129.646 54.9318 129.546 55.0604C129.446 55.1889 129.307 55.2898 129.129 55.363C128.95 55.4361 128.745 55.4727 128.512 55.4727ZM132.789 54.0123C132.789 54.3286 132.727 54.5952 132.604 54.8122C132.481 55.0292 132.315 55.1937 132.105 55.3057C131.896 55.417 131.663 55.4727 131.406 55.4727C131.147 55.4727 130.913 55.4164 130.704 55.3038C130.495 55.1911 130.33 55.0263 130.207 54.8093C130.084 54.5924 130.023 54.3267 130.023 54.0123C130.023 53.6954 130.084 53.4285 130.207 53.2115C130.33 52.9945 130.495 52.8303 130.704 52.719C130.913 52.607 131.147 52.551 131.406 52.551C131.663 52.551 131.896 52.607 132.105 52.719C132.315 52.8303 132.481 52.9945 132.604 53.2115C132.727 53.4285 132.789 53.6954 132.789 54.0123ZM131.995 54.0123C131.995 53.8418 131.972 53.698 131.927 53.5809C131.882 53.4638 131.816 53.375 131.728 53.3146C131.641 53.2535 131.534 53.223 131.406 53.223C131.278 53.223 131.17 53.2535 131.082 53.3146C130.995 53.375 130.929 53.4638 130.884 53.5809C130.839 53.698 130.817 53.8418 130.817 54.0123C130.817 54.1822 130.839 54.3257 130.884 54.4428C130.929 54.5599 130.995 54.649 131.082 54.7101C131.17 54.7705 131.278 54.8008 131.406 54.8008C131.534 54.8008 131.641 54.7705 131.728 54.7101C131.816 54.649 131.882 54.5599 131.927 54.4428C131.972 54.3257 131.995 54.1822 131.995 54.0123ZM133.144 55.4336L133.144 52.5901L134.377 52.5901C134.594 52.5901 134.776 52.6194 134.923 52.6779C135.071 52.7358 135.182 52.8182 135.257 52.9251C135.333 53.0314 135.371 53.1568 135.371 53.3012C135.371 53.4056 135.348 53.501 135.302 53.5876C135.256 53.6735 135.192 53.7454 135.109 53.8033C135.027 53.8612 134.931 53.901 134.821 53.9226L134.821 53.9512C134.943 53.9557 135.054 53.9866 135.154 54.0438C135.254 54.1005 135.334 54.1784 135.393 54.2777C135.452 54.377 135.482 54.4937 135.482 54.628C135.482 54.7839 135.441 54.9226 135.36 55.0442C135.28 55.1651 135.165 55.2602 135.016 55.3296C134.867 55.3989 134.689 55.4336 134.482 55.4336L133.144 55.4336ZM133.916 54.817L134.277 54.817C134.407 54.817 134.504 54.7928 134.568 54.7444C134.633 54.6954 134.666 54.6235 134.666 54.5287C134.666 54.4619 134.65 54.4053 134.62 54.3588C134.589 54.3124 134.546 54.2774 134.49 54.2538C134.434 54.2296 134.367 54.2176 134.289 54.2176L133.916 54.2176L133.916 54.817ZM133.916 53.7393L134.232 53.7393C134.3 53.7393 134.36 53.7288 134.412 53.7078C134.463 53.6868 134.504 53.6563 134.533 53.6162C134.562 53.5755 134.577 53.5259 134.577 53.4673C134.577 53.3795 134.545 53.3124 134.482 53.2659C134.419 53.2188 134.34 53.1953 134.244 53.1953L133.916 53.1953L133.916 53.7393ZM136.493 55.4336L135.66 55.4336L136.598 52.5901L137.654 52.5901L138.592 55.4336L137.759 55.4336L137.137 53.3728L137.114 53.3728L136.493 55.4336ZM136.337 54.312L137.904 54.312L137.904 54.8895L136.337 54.8895L136.337 54.312ZM138.426 53.2125L138.426 52.5901L140.897 52.5901L140.897 53.2125L140.042 53.2125L140.042 55.4336L139.281 55.4336L139.281 53.2125L138.426 53.2125ZM141.186 55.4336L141.186 52.5901L143.235 52.5901L143.235 53.2125L141.958 53.2125L141.958 53.7012L143.129 53.7012L143.129 54.3225L141.958 54.3225L141.958 54.8113L143.229 54.8113L143.229 55.4336L141.186 55.4336ZM143.523 55.4336L143.523 54.8389L143.602 54.8284C143.696 54.8138 143.774 54.7731 143.837 54.7063C143.899 54.6388 143.947 54.5319 143.981 54.3855C144.014 54.2385 144.036 54.0381 144.046 53.7842L144.09 52.5901L146.15 52.5901L146.15 55.4336L145.406 55.4336L145.406 53.1895L144.801 53.1895L144.757 54.0839C144.74 54.4155 144.696 54.6799 144.623 54.8771C144.551 55.0744 144.441 55.2166 144.294 55.3038C144.147 55.3903 143.953 55.4336 143.712 55.4336L143.523 55.4336ZM147.006 53.5456L147.595 53.5456C147.834 53.5456 148.043 53.5841 148.222 53.6611C148.401 53.7374 148.54 53.8456 148.64 53.9856C148.74 54.1256 148.789 54.2898 148.789 54.4781C148.789 54.6671 148.74 54.8335 148.64 54.9773C148.54 55.1205 148.401 55.2325 148.222 55.3133C148.043 55.3935 147.834 55.4336 147.595 55.4336L146.533 55.4336L146.533 52.5901L147.305 52.5901L147.305 54.8284L147.595 54.8284C147.688 54.8284 147.766 54.8132 147.829 54.7826C147.893 54.7521 147.941 54.7101 147.973 54.6566C148.007 54.6025 148.023 54.5411 148.022 54.4724C148.023 54.3757 147.987 54.2952 147.913 54.2309C147.84 54.1666 147.734 54.1345 147.595 54.1345L147.006 54.1345L147.006 53.5456ZM149.227 55.4336L149.227 52.5901L149.999 52.5901L149.999 53.7012L151.021 53.7012L151.021 52.5901L151.793 52.5901L151.793 55.4336L151.021 55.4336L151.021 54.3225L149.999 54.3225L149.999 55.4336L149.227 55.4336ZM154.914 54.0123C154.914 54.3286 154.852 54.5952 154.729 54.8122C154.606 55.0292 154.44 55.1937 154.231 55.3057C154.021 55.417 153.788 55.4727 153.531 55.4727C153.272 55.4727 153.038 55.4164 152.829 55.3038C152.621 55.1911 152.455 55.0263 152.332 54.8093C152.209 54.5924 152.148 54.3267 152.148 54.0123C152.148 53.6954 152.209 53.4285 152.332 53.2115C152.455 52.9945 152.621 52.8303 152.829 52.719C153.038 52.607 153.272 52.551 153.531 52.551C153.788 52.551 154.021 52.607 154.231 52.719C154.44 52.8303 154.606 52.9945 154.729 53.2115C154.852 53.4285 154.914 53.6954 154.914 54.0123ZM154.12 54.0123C154.12 53.8418 154.097 53.698 154.052 53.5809C154.007 53.4638 153.941 53.375 153.853 53.3146C153.766 53.2535 153.659 53.223 153.531 53.223C153.403 53.223 153.295 53.2535 153.207 53.3146C153.12 53.375 153.054 53.4638 153.009 53.5809C152.964 53.698 152.942 53.8418 152.942 54.0123C152.942 54.1822 152.964 54.3257 153.009 54.4428C153.054 54.5599 153.12 54.649 153.207 54.7101C153.295 54.7705 153.403 54.8008 153.531 54.8008C153.659 54.8008 153.766 54.7705 153.853 54.7101C153.941 54.649 154.007 54.5599 154.052 54.4428C154.097 54.3257 154.12 54.1822 154.12 54.0123ZM157.269 52.5901L157.269 53.2125L156.041 53.2125L156.041 55.4336L155.269 55.4336L155.269 52.5901L157.269 52.5901ZM160.179 54.0123C160.179 54.3286 160.117 54.5952 159.993 54.8122C159.871 55.0292 159.705 55.1937 159.495 55.3057C159.286 55.417 159.053 55.4727 158.796 55.4727C158.537 55.4727 158.303 55.4164 158.094 55.3038C157.885 55.1911 157.72 55.0263 157.597 54.8093C157.474 54.5924 157.413 54.3267 157.413 54.0123C157.413 53.6954 157.474 53.4285 157.597 53.2115C157.72 52.9945 157.885 52.8303 158.094 52.719C158.303 52.607 158.537 52.551 158.796 52.551C159.053 52.551 159.286 52.607 159.495 52.719C159.705 52.8303 159.871 52.9945 159.993 53.2115C160.117 53.4285 160.179 53.6954 160.179 54.0123ZM159.385 54.0123C159.385 53.8418 159.362 53.698 159.317 53.5809C159.272 53.4638 159.206 53.375 159.118 53.3146C159.031 53.2535 158.923 53.223 158.796 53.223C158.668 53.223 158.56 53.2535 158.472 53.3146C158.385 53.375 158.319 53.4638 158.273 53.5809C158.229 53.698 158.207 53.8418 158.207 54.0123C158.207 54.1822 158.229 54.3257 158.273 54.4428C158.319 54.5599 158.385 54.649 158.472 54.7101C158.56 54.7705 158.668 54.8008 158.796 54.8008C158.923 54.8008 159.031 54.7705 159.118 54.7101C159.206 54.649 159.272 54.5599 159.317 54.4428C159.362 54.3257 159.385 54.1822 159.385 54.0123ZM164.266 54.8504L164.232 56.1056L163.516 56.1056L163.516 55.4336L163.316 55.4336L163.316 54.8504L164.266 54.8504ZM161.311 55.4336L161.311 52.5901L162.056 52.5901L162.056 54.8389L163.05 54.8389L163.05 52.5901L163.805 52.5901L163.805 55.4336L161.311 55.4336ZM164.527 52.5901L165.299 52.5901L165.299 54.0782L165.321 54.0782L166.332 52.5901L166.987 52.5901L166.987 55.4336L166.215 55.4336L166.215 53.9398L166.198 53.9398L165.171 55.4336L164.527 55.4336L164.527 52.5901ZM168.575 52.8736L169.336 52.8736C169.575 52.8736 169.786 52.9223 169.971 53.0196C170.156 53.1164 170.301 53.2541 170.406 53.4329C170.511 53.6118 170.564 53.8233 170.564 54.0677C170.564 54.2987 170.511 54.4991 170.406 54.669C170.301 54.8383 170.156 54.9694 169.971 55.0623C169.786 55.1546 169.575 55.2007 169.336 55.2007L168.575 55.2007C168.335 55.2007 168.122 55.1549 167.936 55.0632C167.751 54.9716 167.605 54.8405 167.5 54.67C167.395 54.4995 167.342 54.2968 167.342 54.062C167.342 53.8176 167.396 53.6067 167.503 53.4291C167.609 53.251 167.756 53.1138 167.942 53.0177C168.127 52.9216 168.339 52.8736 168.575 52.8736ZM168.575 53.5064C168.479 53.5064 168.391 53.5246 168.309 53.5608C168.228 53.5971 168.163 53.656 168.114 53.7374C168.066 53.8189 168.042 53.9271 168.042 54.062C168.042 54.1861 168.067 54.2853 168.117 54.3598C168.168 54.4336 168.234 54.4867 168.315 54.5192C168.396 54.551 168.483 54.5669 168.575 54.5669L169.342 54.5669C169.436 54.5669 169.522 54.55 169.601 54.5163C169.679 54.4826 169.741 54.4291 169.788 54.356C169.835 54.2821 169.858 54.1861 169.858 54.0677C169.858 53.9322 169.835 53.8233 169.788 53.7412C169.741 53.6585 169.679 53.5987 169.601 53.5618C169.522 53.5249 169.436 53.5064 169.342 53.5064L168.575 53.5064ZM169.314 52.5405L169.314 55.55L168.592 55.55L168.592 52.5405L169.314 52.5405ZM170.919 55.4336L170.919 52.5901L172.146 52.5901C172.357 52.5901 172.542 52.6318 172.7 52.7152C172.859 52.7985 172.982 52.9156 173.069 53.0664C173.157 53.2172 173.201 53.3935 173.201 53.5952C173.201 53.7988 173.156 53.9754 173.066 54.125C172.976 54.2739 172.85 54.3887 172.687 54.4695C172.524 54.5497 172.335 54.5898 172.119 54.5898L171.386 54.5898L171.386 53.9894L171.963 53.9894C172.054 53.9894 172.131 53.9735 172.195 53.9417C172.26 53.9099 172.31 53.8644 172.344 53.8052C172.379 53.746 172.397 53.676 172.397 53.5952C172.397 53.5138 172.379 53.4441 172.344 53.3862C172.31 53.3283 172.26 53.284 172.195 53.2535C172.131 53.2223 172.054 53.2067 171.963 53.2067L171.691 53.2067L171.691 55.4336L170.919 55.4336ZM176.239 54.0123C176.239 54.3286 176.178 54.5952 176.054 54.8122C175.931 55.0292 175.765 55.1937 175.556 55.3057C175.347 55.417 175.113 55.4727 174.856 55.4727C174.597 55.4727 174.363 55.4164 174.155 55.3038C173.946 55.1911 173.78 55.0263 173.657 54.8093C173.535 54.5924 173.473 54.3267 173.473 54.0123C173.473 53.6954 173.535 53.4285 173.657 53.2115C173.78 52.9945 173.946 52.8303 174.155 52.719C174.363 52.607 174.597 52.551 174.856 52.551C175.113 52.551 175.347 52.607 175.556 52.719C175.765 52.8303 175.931 52.9945 176.054 53.2115C176.178 53.4285 176.239 53.6954 176.239 54.0123ZM175.445 54.0123C175.445 53.8418 175.423 53.698 175.377 53.5809C175.333 53.4638 175.267 53.375 175.179 53.3146C175.092 53.2535 174.984 53.223 174.856 53.223C174.728 53.223 174.621 53.2535 174.533 53.3146C174.446 53.375 174.379 53.4638 174.334 53.5809C174.29 53.698 174.267 53.8418 174.267 54.0123C174.267 54.1822 174.29 54.3257 174.334 54.4428C174.379 54.5599 174.446 54.649 174.533 54.7101C174.621 54.7705 174.728 54.8008 174.856 54.8008C174.984 54.8008 175.092 54.7705 175.179 54.7101C175.267 54.649 175.333 54.5599 175.377 54.4428C175.423 54.3257 175.445 54.1822 175.445 54.0123ZM176.595 55.4336L176.595 52.5901L177.828 52.5901C178.044 52.5901 178.226 52.6194 178.374 52.6779C178.521 52.7358 178.633 52.8182 178.708 52.9251C178.784 53.0314 178.822 53.1568 178.822 53.3012C178.822 53.4056 178.799 53.501 178.753 53.5876C178.707 53.6735 178.643 53.7454 178.56 53.8033C178.478 53.8612 178.382 53.901 178.272 53.9226L178.272 53.9512C178.394 53.9557 178.505 53.9866 178.605 54.0438C178.705 54.1005 178.784 54.1784 178.843 54.2777C178.903 54.377 178.932 54.4937 178.932 54.628C178.932 54.7839 178.892 54.9226 178.811 55.0442C178.73 55.1651 178.615 55.2602 178.466 55.3296C178.318 55.3989 178.14 55.4336 177.933 55.4336L176.595 55.4336ZM177.367 54.817L177.728 54.817C177.857 54.817 177.954 54.7928 178.019 54.7444C178.084 54.6954 178.116 54.6235 178.116 54.5287C178.116 54.4619 178.101 54.4053 178.07 54.3588C178.04 54.3124 177.996 54.2774 177.94 54.2538C177.884 54.2296 177.817 54.2176 177.739 54.2176L177.367 54.2176L177.367 54.817ZM177.367 53.7393L177.683 53.7393C177.751 53.7393 177.811 53.7288 177.862 53.7078C177.914 53.6868 177.954 53.6563 177.983 53.6162C178.013 53.5755 178.027 53.5259 178.027 53.4673C178.027 53.3795 177.996 53.3124 177.933 53.2659C177.87 53.2188 177.79 53.1953 177.694 53.1953L177.367 53.1953L177.367 53.7393ZM181.959 54.0123C181.959 54.3286 181.898 54.5952 181.774 54.8122C181.652 55.0292 181.485 55.1937 181.276 55.3057C181.067 55.417 180.833 55.4727 180.576 55.4727C180.317 55.4727 180.084 55.4164 179.875 55.3038C179.666 55.1911 179.5 55.0263 179.378 54.8093C179.255 54.5924 179.193 54.3267 179.193 54.0123C179.193 53.6954 179.255 53.4285 179.378 53.2115C179.5 52.9945 179.666 52.8303 179.875 52.719C180.084 52.607 180.317 52.551 180.576 52.551C180.833 52.551 181.067 52.607 181.276 52.719C181.485 52.8303 181.652 52.9945 181.774 53.2115C181.898 53.4285 181.959 53.6954 181.959 54.0123ZM181.165 54.0123C181.165 53.8418 181.143 53.698 181.098 53.5809C181.053 53.4638 180.987 53.375 180.899 53.3146C180.812 53.2535 180.704 53.223 180.576 53.223C180.449 53.223 180.341 53.2535 180.253 53.3146C180.166 53.375 180.099 53.4638 180.054 53.5809C180.01 53.698 179.987 53.8418 179.987 54.0123C179.987 54.1822 180.01 54.3257 180.054 54.4428C180.099 54.5599 180.166 54.649 180.253 54.7101C180.341 54.7705 180.449 54.8008 180.576 54.8008C180.704 54.8008 180.812 54.7705 180.899 54.7101C180.987 54.649 181.053 54.5599 181.098 54.4428C181.143 54.3257 181.165 54.1822 181.165 54.0123ZM184.314 52.5901L184.314 53.2125L183.087 53.2125L183.087 55.4336L182.315 55.4336L182.315 52.5901L184.314 52.5901ZM187.224 54.0123C187.224 54.3286 187.162 54.5952 187.039 54.8122C186.916 55.0292 186.75 55.1937 186.541 55.3057C186.331 55.417 186.098 55.4727 185.841 55.4727C185.582 55.4727 185.348 55.4164 185.14 55.3038C184.931 55.1911 184.765 55.0263 184.642 54.8093C184.519 54.5924 184.458 54.3267 184.458 54.0123C184.458 53.6954 184.519 53.4285 184.642 53.2115C184.765 52.9945 184.931 52.8303 185.14 52.719C185.348 52.607 185.582 52.551 185.841 52.551C186.098 52.551 186.331 52.607 186.541 52.719C186.75 52.8303 186.916 52.9945 187.039 53.2115C187.162 53.4285 187.224 53.6954 187.224 54.0123ZM186.43 54.0123C186.43 53.8418 186.407 53.698 186.362 53.5809C186.318 53.4638 186.252 53.375 186.164 53.3146C186.077 53.2535 185.969 53.223 185.841 53.223C185.713 53.223 185.605 53.2535 185.518 53.3146C185.43 53.375 185.364 53.4638 185.319 53.5809C185.274 53.698 185.252 53.8418 185.252 54.0123C185.252 54.1822 185.274 54.3257 185.319 54.4428C185.364 54.5599 185.43 54.649 185.518 54.7101C185.605 54.7705 185.713 54.8008 185.841 54.8008C185.969 54.8008 186.077 54.7705 186.164 54.7101C186.252 54.649 186.318 54.5599 186.362 54.4428C186.407 54.3257 186.43 54.1822 186.43 54.0123ZM116.439 57.5901L117.211 57.5901L117.211 59.0782L117.233 59.0782L118.244 57.5901L118.899 57.5901L118.899 60.4336L118.128 60.4336L118.128 58.9398L118.11 58.9398L117.083 60.4336L116.439 60.4336L116.439 57.5901ZM122.043 57.5901L122.043 58.2125L120.816 58.2125L120.816 60.4336L120.043 60.4336L120.043 57.5901L122.043 57.5901ZM122.743 60.4727L122.743 59.8723L122.881 59.8723C122.963 59.8723 123.027 59.8657 123.075 59.8523C123.123 59.8389 123.16 59.8151 123.186 59.7807C123.212 59.7457 123.235 59.6967 123.253 59.6337L123.281 59.5507L122.215 57.5901L123.003 57.5901L123.598 58.7451L124.053 57.5901L124.83 57.5901L123.853 59.8113C123.799 59.9283 123.735 60.0372 123.661 60.1377C123.587 60.2376 123.495 60.3184 123.385 60.3801C123.275 60.4419 123.139 60.4727 122.976 60.4727L122.743 60.4727ZM125.08 57.5901L126.042 57.5901L126.702 59.2004L126.735 59.2004L127.396 57.5901L128.357 57.5901L128.357 60.4336L127.601 60.4336L127.601 58.7899L127.579 58.7899L126.946 60.4116L126.491 60.4116L125.858 58.7785L125.835 58.7785L125.835 60.4336L125.08 60.4336L125.08 57.5901ZM128.723 57.5901L129.685 57.5901L130.345 59.2004L130.379 59.2004L131.039 57.5901L132 57.5901L132 60.4336L131.244 60.4336L131.244 58.7899L131.222 58.7899L130.59 60.4116L130.134 60.4116L129.501 58.7785L129.478 58.7785L129.478 60.4336L128.723 60.4336L128.723 57.5901ZM133.105 60.4336L132.272 60.4336L133.21 57.5901L134.266 57.5901L135.204 60.4336L134.371 60.4336L133.75 58.3728L133.727 58.3728L133.105 60.4336ZM132.95 59.312L134.516 59.312L134.516 59.8895L132.95 59.8895L132.95 59.312ZM135.477 60.4336L135.477 57.5901L136.249 57.5901L136.249 58.7012L137.27 58.7012L137.27 57.5901L138.042 57.5901L138.042 60.4336L137.27 60.4336L137.27 59.3225L136.249 59.3225L136.249 60.4336L135.477 60.4336ZM138.409 57.5901L139.181 57.5901L139.181 59.0782L139.203 59.0782L140.214 57.5901L140.869 57.5901L140.869 60.4336L140.097 60.4336L140.097 58.9398L140.08 58.9398L139.053 60.4336L138.409 60.4336L138.409 57.5901ZM141.158 58.2125L141.158 57.5901L143.629 57.5901L143.629 58.2125L142.774 58.2125L142.774 60.4336L142.013 60.4336L142.013 58.2125L141.158 58.2125ZM143.918 60.4336L143.918 57.5901L145.145 57.5901C145.356 57.5901 145.541 57.6318 145.699 57.7152C145.857 57.7985 145.981 57.9156 146.068 58.0664C146.156 58.2172 146.2 58.3935 146.2 58.5952C146.2 58.7988 146.155 58.9754 146.065 59.125C145.975 59.2739 145.848 59.3887 145.686 59.4695C145.523 59.5497 145.334 59.5898 145.118 59.5898L144.385 59.5898L144.385 58.9894L144.962 58.9894C145.052 58.9894 145.13 58.9735 145.194 58.9417C145.259 58.9099 145.309 58.8644 145.343 58.8052C145.378 58.746 145.395 58.676 145.395 58.5952C145.395 58.5138 145.378 58.4441 145.343 58.3862C145.309 58.3283 145.259 58.284 145.194 58.2535C145.13 58.2223 145.052 58.2067 144.962 58.2067L144.69 58.2067L144.69 60.4336L143.918 60.4336ZM146.867 60.4336L146.034 60.4336L146.972 57.5901L148.028 57.5901L148.966 60.4336L148.133 60.4336L147.511 58.3728L147.488 58.3728L146.867 60.4336ZM146.711 59.312L148.278 59.312L148.278 59.8895L146.711 59.8895L146.711 59.312ZM149.238 60.4336L149.238 57.5901L150.01 57.5901L150.01 58.7012L151.032 58.7012L151.032 57.5901L151.804 57.5901L151.804 60.4336L151.032 60.4336L151.032 59.3225L150.01 59.3225L150.01 60.4336L149.238 60.4336ZM154.925 59.0123C154.925 59.3286 154.863 59.5952 154.74 59.8122C154.617 60.0292 154.451 60.1937 154.242 60.3057C154.032 60.417 153.799 60.4727 153.542 60.4727C153.283 60.4727 153.049 60.4164 152.84 60.3038C152.632 60.1911 152.466 60.0263 152.343 59.8093C152.22 59.5924 152.159 59.3267 152.159 59.0123C152.159 58.6954 152.22 58.4285 152.343 58.2115C152.466 57.9945 152.632 57.8303 152.84 57.719C153.049 57.607 153.283 57.551 153.542 57.551C153.799 57.551 154.032 57.607 154.242 57.719C154.451 57.8303 154.617 57.9945 154.74 58.2115C154.863 58.4285 154.925 58.6954 154.925 59.0123ZM154.131 59.0123C154.131 58.8418 154.108 58.698 154.063 58.5809C154.019 58.4638 153.952 58.375 153.865 58.3146C153.777 58.2535 153.67 58.223 153.542 58.223C153.414 58.223 153.306 58.2535 153.218 58.3146C153.131 58.375 153.065 58.4638 153.02 58.5809C152.975 58.698 152.953 58.8418 152.953 59.0123C152.953 59.1822 152.975 59.3257 153.02 59.4428C153.065 59.5599 153.131 59.649 153.218 59.7101C153.306 59.7705 153.414 59.8008 153.542 59.8008C153.67 59.8008 153.777 59.7705 153.865 59.7101C153.952 59.649 154.019 59.5599 154.063 59.4428C154.108 59.3257 154.131 59.1822 154.131 59.0123ZM157.28 57.5901L157.28 58.2125L156.053 58.2125L156.053 60.4336L155.28 60.4336L155.28 57.5901L157.28 57.5901ZM160.19 59.0123C160.19 59.3286 160.128 59.5952 160.005 59.8122C159.882 60.0292 159.716 60.1937 159.506 60.3057C159.297 60.417 159.064 60.4727 158.807 60.4727C158.548 60.4727 158.314 60.4164 158.105 60.3038C157.896 60.1911 157.731 60.0263 157.608 59.8093C157.485 59.5924 157.424 59.3267 157.424 59.0123C157.424 58.6954 157.485 58.4285 157.608 58.2115C157.731 57.9945 157.896 57.8303 158.105 57.719C158.314 57.607 158.548 57.551 158.807 57.551C159.064 57.551 159.297 57.607 159.506 57.719C159.716 57.8303 159.882 57.9945 160.005 58.2115C160.128 58.4285 160.19 58.6954 160.19 59.0123ZM159.396 59.0123C159.396 58.8418 159.373 58.698 159.328 58.5809C159.283 58.4638 159.217 58.375 159.129 58.3146C159.042 58.2535 158.935 58.223 158.807 58.223C158.679 58.223 158.571 58.2535 158.483 58.3146C158.396 58.375 158.33 58.4638 158.285 58.5809C158.24 58.698 158.218 58.8418 158.218 59.0123C158.218 59.1822 158.24 59.3257 158.285 59.4428C158.33 59.5599 158.396 59.649 158.483 59.7101C158.571 59.7705 158.679 59.8008 158.807 59.8008C158.935 59.8008 159.042 59.7705 159.129 59.7101C159.217 59.649 159.283 59.5599 159.328 59.4428C159.373 59.3257 159.396 59.1822 159.396 59.0123ZM163.933 57.5901L163.933 60.4336L163.171 60.4336L163.171 58.201L162.211 58.201L162.211 60.4336L161.45 60.4336L161.45 57.5901L163.933 57.5901ZM164.427 60.4336L164.427 57.5901L165.654 57.5901C165.865 57.5901 166.05 57.6318 166.208 57.7152C166.366 57.7985 166.49 57.9156 166.577 58.0664C166.665 58.2172 166.709 58.3935 166.709 58.5952C166.709 58.7988 166.664 58.9754 166.574 59.125C166.484 59.2739 166.358 59.3887 166.195 59.4695C166.032 59.5497 165.843 59.5898 165.627 59.5898L164.894 59.5898L164.894 58.9894L165.471 58.9894C165.562 58.9894 165.639 58.9735 165.703 58.9417C165.768 58.9099 165.818 58.8644 165.852 58.8052C165.887 58.746 165.904 58.676 165.904 58.5952C165.904 58.5138 165.887 58.4441 165.852 58.3862C165.818 58.3283 165.768 58.284 165.703 58.2535C165.639 58.2223 165.562 58.2067 165.471 58.2067L165.199 58.2067L165.199 60.4336L164.427 60.4336ZM169.747 59.0123C169.747 59.3286 169.686 59.5952 169.562 59.8122C169.439 60.0292 169.273 60.1937 169.064 60.3057C168.855 60.417 168.621 60.4727 168.364 60.4727C168.105 60.4727 167.871 60.4164 167.663 60.3038C167.454 60.1911 167.288 60.0263 167.165 59.8093C167.043 59.5924 166.981 59.3267 166.981 59.0123C166.981 58.6954 167.043 58.4285 167.165 58.2115C167.288 57.9945 167.454 57.8303 167.663 57.719C167.871 57.607 168.105 57.551 168.364 57.551C168.621 57.551 168.855 57.607 169.064 57.719C169.273 57.8303 169.439 57.9945 169.562 58.2115C169.686 58.4285 169.747 58.6954 169.747 59.0123ZM168.953 59.0123C168.953 58.8418 168.931 58.698 168.885 58.5809C168.841 58.4638 168.775 58.375 168.687 58.3146C168.6 58.2535 168.492 58.223 168.364 58.223C168.236 58.223 168.129 58.2535 168.041 58.3146C167.954 58.375 167.887 58.4638 167.842 58.5809C167.798 58.698 167.775 58.8418 167.775 59.0123C167.775 59.1822 167.798 59.3257 167.842 59.4428C167.887 59.5599 167.954 59.649 168.041 59.7101C168.129 59.7705 168.236 59.8008 168.364 59.8008C168.492 59.8008 168.6 59.7705 168.687 59.7101C168.775 59.649 168.841 59.5599 168.885 59.4428C168.931 59.3257 168.953 59.1822 168.953 59.0123ZM171.324 57.8736L172.085 57.8736C172.324 57.8736 172.535 57.9223 172.72 58.0196C172.905 58.1164 173.05 58.2541 173.155 58.4329C173.26 58.6118 173.313 58.8233 173.313 59.0677C173.313 59.2987 173.26 59.4991 173.155 59.669C173.05 59.8383 172.905 59.9694 172.72 60.0623C172.535 60.1546 172.324 60.2007 172.085 60.2007L171.324 60.2007C171.084 60.2007 170.871 60.1549 170.685 60.0632C170.5 59.9716 170.354 59.8405 170.249 59.67C170.144 59.4995 170.091 59.2968 170.091 59.062C170.091 58.8176 170.145 58.6067 170.251 58.4291C170.358 58.251 170.505 58.1138 170.691 58.0177C170.876 57.9216 171.088 57.8736 171.324 57.8736ZM171.324 58.5064C171.228 58.5064 171.14 58.5246 171.058 58.5608C170.977 58.5971 170.912 58.656 170.863 58.7374C170.815 58.8189 170.791 58.9271 170.791 59.062C170.791 59.1861 170.816 59.2853 170.866 59.3598C170.917 59.4336 170.983 59.4867 171.064 59.5192C171.145 59.551 171.232 59.5669 171.324 59.5669L172.091 59.5669C172.185 59.5669 172.271 59.55 172.35 59.5163C172.428 59.4826 172.49 59.4291 172.537 59.356C172.584 59.2821 172.607 59.1861 172.607 59.0677C172.607 58.9322 172.584 58.8233 172.537 58.7412C172.49 58.6585 172.428 58.5987 172.35 58.5618C172.271 58.5249 172.185 58.5064 172.091 58.5064L171.324 58.5064ZM172.063 57.5405L172.063 60.55L171.341 60.55L171.341 57.5405L172.063 57.5405ZM173.668 57.5901L174.44 57.5901L174.44 59.0782L174.462 59.0782L175.473 57.5901L176.128 57.5901L176.128 60.4336L175.356 60.4336L175.356 58.9398L175.339 58.9398L174.312 60.4336L173.668 60.4336L173.668 57.5901ZM176.4 60.4336L176.4 59.8389L176.478 59.8284C176.573 59.8138 176.651 59.7731 176.713 59.7063C176.776 59.6388 176.824 59.5319 176.857 59.3855C176.891 59.2385 176.913 59.0381 176.922 58.7842L176.967 57.5901L179.027 57.5901L179.027 60.4336L178.282 60.4336L178.282 58.1895L177.677 58.1895L177.633 59.0839C177.617 59.4155 177.572 59.6799 177.5 59.8771C177.428 60.0744 177.318 60.2166 177.17 60.3038C177.023 60.3903 176.83 60.4336 176.589 60.4336L176.4 60.4336ZM179.394 60.4336L179.394 57.5901L181.443 57.5901L181.443 58.2125L180.166 58.2125L180.166 58.7012L181.337 58.7012L181.337 59.3225L180.166 59.3225L180.166 59.8113L181.437 59.8113L181.437 60.4336L179.394 60.4336ZM181.826 57.5901L182.598 57.5901L182.598 59.0782L182.62 59.0782L183.631 57.5901L184.286 57.5901L184.286 60.4336L183.515 60.4336L183.515 58.9398L183.497 58.9398L182.47 60.4336L181.826 60.4336L181.826 57.5901ZM183.337 56.8236L183.82 56.8236C183.819 57.0044 183.75 57.1485 183.613 57.256C183.476 57.3636 183.292 57.4174 183.059 57.4174C182.825 57.4174 182.639 57.3636 182.502 57.256C182.365 57.1485 182.297 57.0044 182.299 56.8236L182.776 56.8236C182.775 56.8822 182.796 56.9356 182.839 56.984C182.882 57.0324 182.956 57.0565 183.059 57.0565C183.158 57.0565 183.229 57.033 183.271 56.9859C183.314 56.9388 183.336 56.8847 183.337 56.8236Z" fill="rgb(0,0,0)" fill-rule="nonzero" />
		<g id="Группа 71">
			<path id="Вектор 145" d="M91.7115 19.0047L99.6282 27.4556C99.7469 27.5823 99.8129 27.7493 99.8129 27.9229L99.8129 39.9745C99.8129 40.1775 99.5675 40.2791 99.424 40.1356L90.7295 31.4411C90.6013 31.3129 90.5293 31.1391 90.5293 30.9578L90.5293 19.4719C90.5293 18.8522 91.2878 18.5524 91.7115 19.0047Z" fill="rgb(255,21,32)" fill-rule="evenodd" />
			<path id="Вектор 146" d="M1.90023 2.02846L14.6253 15.6123C14.816 15.8158 14.9221 16.0843 14.9221 16.3633L14.9221 35.7346C14.9221 36.0609 14.5277 36.2242 14.297 35.9935L0.32175 22.0183C0.115737 21.8123 0 21.5329 0 21.2415L0 2.77948C0 1.78342 1.21926 1.30154 1.90023 2.02846Z" fill="rgb(255,21,32)" fill-rule="evenodd" transform="matrix(-1,0,0,1,116.256,-0.000488281)" />
			<path id="Вектор 147" d="M95.1321 38.7054L99.6004 43.4753C99.6674 43.5468 99.7047 43.6411 99.7047 43.739L99.7047 50.5412C99.7047 50.6557 99.5662 50.7131 99.4852 50.6321L94.5778 45.7248C94.5055 45.6524 94.4648 45.5543 94.4648 45.452L94.4648 38.9692C94.4648 38.6194 94.893 38.4502 95.1321 38.7054Z" fill="rgb(255,21,32)" fill-rule="evenodd" />
		</g>
	</g>
</svg>
