<svg viewBox="0 0 20 19.9316" xmlns="http://www.w3.org/2000/svg" xmlns:xlink="http://www.w3.org/1999/xlink" width="20.000000" height="19.931641" fill="none" customFrame="#000000">
	<path id="max" d="M9.65302 0.0140611C3.69538 0.325366 -0.237341 4.9978 0.0111322 10.8897C0.119661 13.4687 1.15639 15.6878 1.40201 18.1354C1.46484 18.7695 1.28206 19.552 2.01319 19.829C2.91284 20.1689 4.29229 19.5977 5.04628 19.0751C5.30332 18.9008 5.54893 18.6981 5.73743 18.4467C6.51712 18.9637 7.25683 19.4635 8.18503 19.6862C12.272 20.6659 16.7502 18.4239 18.7408 14.8225C22.4822 8.05658 17.4242 -0.391492 9.65302 0.0140611ZM7.33965 14.1342C7.01692 14.3855 6.70562 14.7282 6.34862 14.9253C5.83168 15.2023 5.67174 14.9139 5.47753 14.4569C4.86635 13.0032 4.79209 10.527 5.14909 9.00478C5.6289 6.93417 7.23112 5.11204 9.43311 4.91783C11.6608 4.72076 13.7285 5.85174 14.6625 7.89379C16.7302 12.4377 11.438 16.9245 7.33965 14.137L7.33965 14.1342Z" fill="rgb(46,125,50)" fill-rule="nonzero" />
</svg>
