<svg viewBox="0 0 20 20" xmlns="http://www.w3.org/2000/svg" xmlns:xlink="http://www.w3.org/1999/xlink" width="20.000000" height="20.000000" fill="none" customFrame="#000000">
	<path id="tg" d="M10 0C4.47714 0 0 4.47714 0 10C0 15.5229 4.47714 20 10 20C15.5229 20 20 15.5229 20 10C20 4.47714 15.5229 0 10 0ZM14.635 6.80071C14.4843 8.38214 13.8336 12.2193 13.5021 13.99C13.3621 14.7393 13.0857 14.9907 12.8186 15.015C12.2379 15.0686 11.7971 14.6314 11.2343 14.2629C10.3543 13.6857 9.85714 13.3264 9.00286 12.7636C8.01571 12.1129 8.65571 11.755 9.21857 11.1707C9.36571 11.0179 11.9243 8.69071 11.9743 8.47928C11.9807 8.45286 11.9864 8.35429 11.9279 8.30214C11.8693 8.25 11.7829 8.26786 11.7207 8.28214C11.6321 8.30214 10.2264 9.23143 7.50285 11.07C7.10357 11.3443 6.74214 11.4779 6.41857 11.4707C6.06143 11.4629 5.375 11.2686 4.86428 11.1029C4.23785 10.8993 3.74 10.7914 3.78357 10.4457C3.80643 10.2657 4.05428 10.0814 4.52785 9.89357C7.44285 8.62357 9.38714 7.78643 10.3593 7.38143C13.1364 6.22643 13.7136 6.02572 14.0893 6.01929C14.1721 6.01786 14.3571 6.03857 14.4771 6.13572C14.5786 6.21786 14.6064 6.32857 14.6193 6.40643C14.6329 6.48429 14.6493 6.66143 14.6357 6.8L14.635 6.80071Z" fill="rgb(46,125,50)" fill-rule="evenodd" />
</svg>
