<svg viewBox="0 0 10.3281 16.5347" xmlns="http://www.w3.org/2000/svg" xmlns:xlink="http://www.w3.org/1999/xlink" width="10.328125" height="16.534668" fill="none" customFrame="#000000">
	<path id="связь" d="M3.35349 16.4217C3.67729 16.1976 3.72709 15.7825 3.48629 15.4422C2.11669 13.5081 1.31979 10.9515 1.31979 8.27026C1.31979 5.58916 2.14989 3.06571 3.47799 1.09842C3.71879 0.749794 3.67729 0.334754 3.35349 0.118934C3.05469 -0.0968862 2.63969 -0.0138764 2.40719 0.326454C0.888189 2.50126 0 5.30696 0 8.27026C0 11.2337 0.879889 14.0311 2.40719 16.2059C2.63969 16.5462 3.05469 16.6292 3.35349 16.4217ZM6.70699 14.1556C7.02249 13.9398 7.06399 13.533 6.82329 13.1761C5.90189 11.8646 5.35399 10.1048 5.35399 8.27026C5.35399 6.43586 5.91849 4.69266 6.82329 3.36456C7.07229 3.0076 7.02249 2.60087 6.70699 2.38505C6.38329 2.16922 5.99319 2.25223 5.75249 2.57596C4.64019 4.10326 4.01759 6.13696 4.01759 8.27026C4.01759 10.3953 4.64849 12.429 5.75249 13.9564C5.98489 14.2884 6.38329 14.3714 6.70699 14.1556ZM10.0191 11.9144C10.3677 11.6654 10.4175 11.2586 10.1685 10.9017C9.68699 10.2459 9.38819 9.25806 9.38819 8.27026C9.38819 7.28246 9.67869 6.29476 10.1602 5.64726C10.4258 5.28206 10.376 4.85866 10.0191 4.61796C9.72849 4.41876 9.33009 4.48516 9.08939 4.80886C8.45019 5.69706 8.05179 6.96706 8.05179 8.27026C8.05179 9.57356 8.44189 10.8519 9.08939 11.7235C9.33009 12.0472 9.72849 12.1136 10.0191 11.9144Z" fill="rgb(46,125,50)" fill-rule="evenodd" />
</svg>
