<svg viewBox="0 0 15.5566 15.5562" xmlns="http://www.w3.org/2000/svg" xmlns:xlink="http://www.w3.org/1999/xlink" width="15.556641" height="15.556152" fill="none" customFrame="#000000">
	<path id="arrow-right" d="M4.4 0C3.99499 0 3.66667 0.328325 3.66667 0.733333C3.66667 1.13834 3.99499 1.46667 4.4 1.46667L8.49933 1.46667L0.517 9.449C0.231469 9.73453 0.231469 10.1975 0.517 10.483C0.802531 10.7685 1.26547 10.7685 1.551 10.483L9.53333 2.50067L9.53333 6.6C9.53333 7.00501 9.86166 7.33333 10.2667 7.33333C10.6717 7.33333 11 7.00501 11 6.6L11 0.946236C11 0.423645 10.5764 0 10.0538 0L4.4 0Z" fill="rgb(46,125,50)" fill-rule="evenodd" transform="matrix(0.707107,0.707107,-0.707107,0.707107,7.77832,0)" />
</svg>
