<svg viewBox="0 0 12 13" xmlns="http://www.w3.org/2000/svg" xmlns:xlink="http://www.w3.org/1999/xlink" width="12.000000" height="13.000000" fill="none" customFrame="#000000">
	<path id="date" d="M10.8 1.18182L10.2 1.18182L10.2 0L9 0L9 1.18182L3 1.18182L3 0L1.8 0L1.8 1.18182L1.2 1.18182C0.54 1.18182 0 1.71364 0 2.36364L0 11.8182C0 12.4682 0.54 13 1.2 13L10.8 13C11.46 13 12 12.4682 12 11.8182L12 2.36364C12 1.71364 11.46 1.18182 10.8 1.18182ZM10.8 11.8182L1.2 11.8182L1.2 4.13636L10.8 4.13636L10.8 11.8182Z" fill="rgb(102,102,102)" fill-rule="evenodd" />
</svg>
