<svg viewBox="0 0 15.999 16.0024" xmlns="http://www.w3.org/2000/svg" xmlns:xlink="http://www.w3.org/1999/xlink" width="15.999023" height="16.002441" fill="none" customFrame="#000000">
	<path id="search" d="M13 6.5C13 7.93437 12.5344 9.25937 11.75 10.3344L15.7063 14.2937C16.0969 14.6844 16.0969 15.3187 15.7063 15.7094C15.3156 16.1 14.6813 16.1 14.2906 15.7094L10.3344 11.75C9.25938 12.5375 7.93438 13 6.5 13C2.90937 13 0 10.0906 0 6.5C0 2.90938 2.90937 0 6.5 0C10.0906 0 13 2.90937 13 6.5ZM6.5 11C7.45031 11 8.37622 10.6992 9.14503 10.1406C9.91385 9.582 10.4861 8.79437 10.7798 7.89058C11.0734 6.98678 11.0734 6.01322 10.7798 5.10942C10.4861 4.20563 9.91385 3.418 9.14503 2.85942C8.37622 2.30085 7.45031 2 6.5 2C5.54969 2 4.62378 2.30085 3.85497 2.85942C3.08615 3.418 2.51391 4.20563 2.22025 5.10942C1.92658 6.01322 1.92658 6.98678 2.22025 7.89058C2.51391 8.79437 3.08615 9.582 3.85497 10.1406C4.62378 10.6992 5.54969 11 6.5 11Z" fill="rgb(102,102,102)" fill-rule="nonzero" />
</svg>
